<svg xmlns="http://www.w3.org/2000/svg" width="610" height="580" viewBox="0 0 610 580">
  <title>The Tin Cup Kitchen + Oyster Bar</title>
  <g fill="none" fill-rule="evenodd">
    <path fill="#0D4286" d="M71.7558022,441.777705 C121.405933,518.028274 207.401138,568.545606 304.979515,568.545606 C402.973284,568.546175 488.953694,518.134683 538.475793,441.777705 L538.475793,441.777705 L552.392556,441.777705 C540.505522,461.18959 526.346922,479.16069 510.027715,495.479328 C483.398256,522.109356 452.386698,543.016651 417.855121,557.622509 C382.1007,572.745616 344.124216,580.410448 304.979515,580.410448 C265.834813,580.410448 227.857761,572.745616 192.103909,557.622509 C157.571763,543.016651 126.560774,522.109356 99.9313153,495.479328 C83.6126772,479.16069 69.4535075,461.18959 57.5664739,441.777705 L57.5664739,441.777705 Z M304.979515,0.449533582 C344.124216,0.449533582 382.1007,8.11777985 417.855121,23.2403172 C452.386698,37.8456063 483.398256,58.7534701 510.027715,85.3829291 C536.657743,112.012957 557.565037,143.023946 572.170896,177.555522 C584.826119,207.476819 592.251959,238.95555 594.345989,271.372043 L594.345989,271.372043 L582.441884,271.372043 C572.614739,126.874879 451.926353,12.3166511 304.980084,12.3166511 C157.530793,12.3160821 37.2720243,126.442985 27.5108862,271.372043 L27.5108862,271.372043 L15.6158862,271.372043 C17.7047948,238.95555 25.1329104,207.476819 37.7887034,177.555522 C52.3939925,143.023946 73.3018563,112.012957 99.9313153,85.3829291 C126.560774,58.7534701 157.571763,37.8456063 192.103909,23.2403172 C227.857761,8.11777985 265.834813,0.449533582 304.979515,0.449533582 Z"/>
    <path fill="#A49588" d="M82.253834,441.777705 C88.4061847,450.802519 95.0791978,459.446082 102.252957,467.642388 C111.411493,478.106278 123.808377,485.204925 137.450868,487.898144 L137.450868,487.898144 L151.987304,490.766623 L162.921782,509.233918 C169.375149,520.132547 178.966147,528.819356 190.421287,534.224002 C225.203806,550.634823 264.038955,559.818396 304.979515,559.818396 C345.411931,559.818396 383.790718,550.862435 418.240354,534.832864 C429.805886,529.451549 439.480532,520.707267 445.979422,509.730681 L445.979422,509.730681 L457.208657,490.766623 L472.66806,487.715485 C486.329328,485.018853 498.743853,477.905979 507.903526,467.417621 C515.003312,459.288461 521.609748,450.720578 527.705196,441.777705 L527.705196,441.777705 L533.978181,441.777705 C523.856278,457.06583 512.188321,471.345065 499.040886,484.493069 C473.836847,509.696539 444.487425,529.484552 411.806334,543.307425 C377.970112,557.619095 342.028479,564.875364 304.979515,564.875364 C267.931119,564.875364 231.988918,557.619095 198.152696,543.307425 C165.472174,529.484552 136.122183,509.696539 110.918144,484.493069 C97.770709,471.345065 86.1033209,457.06583 75.9808489,441.777705 L75.9808489,441.777705 Z M304.979515,15.9874627 C342.028479,15.9874627 377.970112,23.2437313 411.806334,37.5554011 C444.487425,51.3782743 473.836847,71.1662873 499.040886,96.3697575 C524.244356,121.573797 544.032938,150.923787 557.855812,183.604879 C569.701306,211.606838 576.706063,241.051856 578.771642,271.372043 L578.771642,271.372043 L573.695896,271.372043 C569.456623,210.993424 545.22847,156.041642 507.605354,113.105494 C498.447388,102.654123 486.059039,95.5623041 472.426222,92.871931 L472.426222,92.871931 L457.208657,89.8685914 L446.166063,71.2197761 C439.67514,60.256847 430.015289,51.5228078 418.469674,46.1369403 C383.961427,30.0402239 345.501838,21.044431 304.979515,21.044431 C263.949049,21.044431 225.033666,30.2678358 190.192537,46.7463713 C178.756744,52.155 169.179972,60.8315672 162.73514,71.7165392 L162.73514,71.7165392 L151.987304,89.8685914 L137.692705,92.6898414 C124.079235,95.3768004 111.707388,102.453825 102.551129,112.880159 C64.8153451,155.84931 40.5115112,210.887584 36.2637034,271.372043 L36.2637034,271.372043 L31.185681,271.372043 C33.2512593,241.051856 40.259431,211.606838 52.1037873,183.604879 C65.9266604,150.923787 85.7146735,121.573797 110.918144,96.3697575 C136.122183,71.1662873 165.472174,51.3782743 198.152696,37.5554011 C231.988918,23.2437313 267.931119,15.9874627 304.979515,15.9874627 Z"/>
    <path fill="#0D4286" d="M468.513573 433.560914L471.980672 433.560914C474.17542 433.560914 475.404524 432.617463 475.404524 430.686175 475.404524 428.799272 474.17542 427.876875 471.980672 427.876875L468.513573 427.876875 468.513573 433.560914zM472.529216 436.128377C472.353955 436.15 472.178694 436.15 471.980672 436.15L468.513573 436.15 468.513573 440.671511 465.572826 440.671511 465.572826 425.309412 471.980672 425.309412C475.953069 425.309412 478.213825 427.218507 478.213825 430.598545 478.213825 433.012369 477.138358 434.746203 475.162687 435.579832L478.543293 440.671511 475.184879 440.671511 472.529216 436.128377zM453.747817 434.899272L451.069963 428.447043 448.348862 434.899272 453.747817 434.899272zM454.800522 437.423489L447.295588 437.423489 445.935037 440.671511 442.884468 440.671511 449.622351 425.309412 452.672351 425.309412 459.321465 440.671511 456.161642 440.671511 454.800522 437.423489 454.800522 437.423489zM434.503797 436.062938C434.503797 434.811642 433.384515 434.043451 431.519235 434.065075L427.788106 434.065075 427.788106 438.125103 431.519235 438.125103C433.384515 438.147295 434.503797 437.379674 434.503797 436.062938zM433.955252 429.676716C433.955252 428.513619 433.033424 427.83306 431.519235 427.854683L427.788106 427.854683 427.788106 431.585812 431.519235 431.585812C433.033424 431.585812 433.955252 430.883629 433.955252 429.676716zM436.961437 429.150364C436.961437 430.839244 435.952547 432.134356 434.284151 432.550886 436.32583 432.924739 437.554366 434.395112 437.554366 436.435653 437.554366 439.069123 435.38181 440.671511 431.870326 440.671511L424.847929 440.671511 424.847929 425.309412 431.673442 425.309412C434.943657 425.309412 436.961437 426.779785 436.961437 429.150364L436.961437 429.150364zM396.564869 433.560914L400.032537 433.560914C402.227285 433.560914 403.45639 432.617463 403.45639 430.686175 403.45639 428.799272 402.227285 427.876875 400.032537 427.876875L396.564869 427.876875 396.564869 433.560914zM403.236744 440.671511L400.581082 436.128377C400.405252 436.15 400.23056 436.15 400.032537 436.15L396.564869 436.15 396.564869 440.671511 393.624123 440.671511 393.624123 425.309412 400.032537 425.309412C404.005504 425.309412 406.265121 427.218507 406.265121 430.598545 406.265121 433.012369 405.190224 434.746203 403.214552 435.579832L406.59459 440.671511 403.236744 440.671511 403.236744 440.671511z"/>
    <polyline fill="#0D4286" points="385.99 425.309 385.99 427.877 377.673 427.877 377.673 431.673 385.135 431.673 385.135 434.241 377.673 434.241 377.673 438.103 386.254 438.103 386.254 440.672 374.732 440.672 374.732 425.309 385.99 425.309"/>
    <polyline fill="#0D4286" points="368.261 425.309 368.261 427.921 363.477 427.921 363.477 440.672 360.515 440.672 360.515 427.921 355.73 427.921 355.73 425.309 368.261 425.309"/>
    <path fill="#0D4286" d="M344.32167,427.854683 C342.938927,427.854683 342.039291,428.359412 342.039291,429.303433 C342.039291,432.420009 350.290793,430.729991 350.268645,436.2382 C350.268645,439.113507 347.766576,440.780765 344.387677,440.780765 C341.929468,440.780765 339.537836,439.793498 337.891632,438.323125 L339.120168,435.843293 C340.700933,437.247659 342.785858,438.103479 344.431493,438.103479 C346.077127,438.103479 347.064963,437.489496 347.064963,436.413461 C347.064963,433.209823 338.813461,435.031287 338.813461,429.566894 C338.813461,426.889608 341.118032,425.177397 344.562938,425.177397 C346.604618,425.177397 348.64459,425.836334 350.114963,426.801978 L348.929674,429.347248 C347.284039,428.359412 345.506959,427.854683 344.32167,427.854683"/>
    <polyline fill="#0D4286" points="327.404 435.646 327.404 440.672 324.464 440.672 324.464 435.756 318.736 425.309 321.72 425.309 325.912 432.529 330.038 425.309 333 425.309 327.404 435.646"/>
    <path fill="#0D4286" d="M300.370942,432.990746 C300.370942,435.887677 302.763144,438.168918 305.594067,438.168918 C308.403368,438.168918 310.729562,435.887677 310.729562,432.990746 C310.729562,430.093246 308.403368,427.854683 305.594067,427.854683 C302.741521,427.854683 300.370942,430.093246 300.370942,432.990746 Z M313.736315,432.990746 C313.736315,437.401866 310.180448,440.802388 305.550252,440.802388 C300.919487,440.802388 297.364188,437.401866 297.364188,432.990746 C297.364188,428.557435 300.919487,425.221213 305.550252,425.221213 C310.180448,425.221213 313.736315,428.579058 313.736315,432.990746 L313.736315,432.990746 Z"/>
    <polyline fill="#0D4286" points="280.581 434.527 276.762 434.527 276.762 438.301 274.897 438.301 274.897 434.527 271.1 434.527 271.1 432.551 274.897 432.551 274.897 428.755 276.762 428.755 276.762 432.551 280.581 432.551 280.581 434.527"/>
    <polyline fill="#0D4286" points="242.313 425.309 250.235 435.821 250.235 425.309 253.088 425.309 253.088 440.672 250.301 440.672 242.4 430.181 242.4 440.672 239.526 440.672 239.526 425.309 242.313 425.309"/>
    <polyline fill="#0D4286" points="231.892 425.309 231.892 427.877 223.574 427.877 223.574 431.673 231.036 431.673 231.036 434.241 223.574 434.241 223.574 438.103 232.155 438.103 232.155 440.672 220.634 440.672 220.634 425.309 231.892 425.309"/>
    <polyline fill="#0D4286" points="201.851 425.309 201.851 431.871 209.511 431.871 209.511 425.309 212.451 425.309 212.451 440.672 209.511 440.672 209.511 434.439 201.851 434.439 201.851 440.672 198.911 440.672 198.911 425.309 201.851 425.309"/>
    <path fill="#0D4286" d="M186.207621,427.83306 C183.310121,427.83306 181.049935,430.071623 181.049935,432.924739 C181.049935,435.799478 183.310121,438.037472 186.207621,438.037472 C187.677994,438.037472 189.235429,437.35805 190.376903,436.2382 L192.110737,438.168918 C190.530541,439.771306 188.270354,440.802388 186.053414,440.802388 C181.533041,440.802388 178.043181,437.401866 178.043181,432.968554 C178.043181,428.579058 181.576856,425.221213 186.163237,425.221213 C188.357985,425.221213 190.595979,426.165802 192.088545,427.679991 L190.376903,429.829785 C189.279244,428.60125 187.721241,427.83306 186.207621,427.83306"/>
    <polyline fill="#0D4286" points="173.657 425.309 173.657 427.921 168.873 427.921 168.873 440.672 165.91 440.672 165.91 427.921 161.126 427.921 161.126 425.309 173.657 425.309"/>
    <polygon fill="#0D4286" points="151.735 440.672 154.675 440.672 154.675 425.309 151.735 425.309"/>
    <polyline fill="#0D4286" points="141.599 440.672 136.815 434.087 134.356 436.809 134.356 440.672 131.416 440.672 131.416 425.309 134.356 425.309 134.356 432.814 141.313 425.309 144.737 425.309 138.877 431.805 145.154 440.672 141.599 440.672"/>
    <polyline fill="#0D4286" points="506.105 430.923 502.543 430.923 502.543 435.058 609.96 435.058 609.96 430.923 506.105 430.923"/>
    <polygon fill="#0D4286" points=".034 435.058 107.416 435.058 107.416 430.923 .034 430.923"/>
    <path fill="#A49588" d="M580.780317,314.134067 C581.036381,314.362248 581.298134,314.588153 581.548507,314.826576 C587.711101,320.681894 590.835075,328.446875 590.835075,337.906427 C590.835075,356.464767 580.905504,367.500532 562.699394,369.479618 L562.699394,369.479618 L562.699394,395.789851 C566.083983,398.24806 566.605784,401.387397 566.605784,403.085382 L566.605784,403.085382 L566.605784,405.830951 C566.605784,410.238657 563.329879,413.437743 558.815765,413.437743 L558.815765,413.437743 L539.774888,413.437743 C536.917789,413.437743 534.534123,412.013461 533.250392,409.809608 C534.384468,410.472528 535.723965,410.853209 537.190354,410.853209 L537.190354,410.853209 L556.231231,410.853209 C560.745345,410.853209 564.02125,407.654123 564.02125,403.246418 L564.02125,403.246418 L564.02125,400.500849 C564.02125,398.802864 563.49945,395.663526 560.11486,393.205317 L560.11486,393.205317 L560.11486,366.895084 C578.322108,364.915998 588.251679,353.880233 588.251679,335.321894 C588.251679,326.845625 585.730877,319.734459 580.780317,314.134067 Z M560.11486,325.920951 C560.178591,326.070037 560.234356,326.217416 560.285569,326.356259 C560.671371,327.42319 561.318927,330.085112 561.318927,335.931894 C561.318927,341.725756 560.64861,344.240868 560.250289,345.223013 C560.204198,345.335112 560.158675,345.439813 560.11486,345.539394 L560.11486,345.539394 Z"/>
    <path fill="#0D4286" d="M553.912435,317.013927 L553.912435,353.813657 C557.573573,353.813657 560.249151,353.397127 561.937463,352.562929 C563.625205,351.7293 564.978927,350.060336 565.995784,347.558881 C567.012071,345.056856 567.521922,341.181194 567.521922,335.932463 C567.521922,330.725271 567.05361,326.829692 566.118125,324.245159 C565.182071,321.662332 563.778274,319.842006 561.907304,318.784179 C560.035765,317.726353 557.36986,317.1357 553.912435,317.013927 Z M553.912435,361.014729 L553.912435,393.299776 C553.912435,395.415998 554.684608,397.002453 556.231231,398.059711 C557.288489,398.751651 557.818256,399.565364 557.818256,400.500849 L557.818256,403.246418 C557.818256,404.183041 557.288489,404.650784 556.231231,404.650784 L537.190924,404.650784 C536.295271,404.650784 535.848013,404.223442 535.848013,403.368759 L535.848013,400.500849 C535.848013,399.606334 536.376073,398.792052 537.434468,398.059711 C538.980522,396.960914 539.753265,395.37389 539.753265,393.299776 L539.753265,321.041521 C539.753265,318.966838 538.980522,317.400868 537.434468,316.343041 C536.376073,315.651101 535.848013,314.816903 535.848013,313.840448 L535.848013,311.154627 C535.848013,310.219711 536.376073,309.751399 537.434468,309.751399 L553.912435,309.751399 C562.862705,309.751399 569.792351,312.080438 574.691698,316.739086 C579.596735,321.397733 582.049254,327.592761 582.049254,335.321894 C582.049254,352.451399 572.665951,361.014729 553.912435,361.014729 L553.912435,361.014729 Z"/>
    <path fill="#A49588" d="M524.625037,307.176539 C526.81694,308.456287 528.23041,310.804674 528.23041,313.61625 L528.23041,313.61625 L528.23041,316.421567 C528.23041,318.101912 527.712593,321.243526 524.325159,323.768881 L524.325159,323.768881 L524.325159,385.218414 C524.325159,394.042929 521.919869,401.185961 517.175868,406.448349 C512.264571,411.896241 505.827705,414.658312 498.043946,414.658312 C490.310261,414.658312 483.842099,411.94916 478.816996,406.606539 C478.602472,406.377789 478.398759,406.143349 478.19334,405.909478 C482.902062,410.00194 488.697062,412.073778 495.459412,412.073778 C503.243172,412.073778 509.680037,409.311707 514.591334,403.863815 C519.335336,398.601427 521.740625,391.458396 521.740625,382.633881 L521.740625,382.633881 L521.740625,321.184347 C525.12806,318.658993 525.645877,315.517379 525.645877,313.837034 L525.645877,313.837034 L525.645877,311.031716 C525.645877,309.599468 525.273731,308.290131 524.625037,307.176539 Z M497.993302,318.37334 C498.55778,319.292323 499.361819,320.224963 500.491343,321.091595 C499.911502,322.001474 499.100065,322.919888 497.960868,323.768312 L497.960868,323.768312 L497.960868,387.043293 C497.960868,388.721362 498.090606,389.966399 498.265299,390.889366 C498.084916,390.923507 497.867547,390.940578 497.594981,390.940578 C496.711278,390.940578 496.600317,390.773284 496.446679,390.541688 C496.124608,390.057444 495.376334,388.494319 495.376334,384.458759 L495.376334,384.458759 L495.376334,321.183778 C496.571297,320.293815 497.409478,319.326465 497.993302,318.37334 Z"/>
    <path fill="#0D4286" d="M515.537631,382.633881 C515.537631,389.912341 513.686007,395.604916 509.984468,399.711035 C506.281791,403.818293 501.440485,405.871353 495.459412,405.871353 C489.47834,405.871353 484.575009,403.838209 480.751698,399.772491 C476.926679,395.706203 475.014739,390.380084 475.014739,383.793563 L475.014739,321.034123 C475.014739,318.961147 474.241427,317.395746 472.695373,316.338489 C471.636978,315.606147 471.108918,314.773088 471.108918,313.837034 L471.108918,311.153489 C471.108918,310.219711 471.636978,309.751399 472.695373,309.751399 L491.736819,309.751399 C492.631334,309.751399 493.079729,310.178741 493.079729,311.032285 L493.079729,313.837034 C493.079729,314.773088 492.549963,315.606147 491.492705,316.33792 C489.946082,317.395177 489.17334,318.961147 489.17334,321.034123 L489.17334,384.458759 C489.17334,392.915681 491.980364,397.144142 497.594981,397.144142 C503.738228,397.144142 506.81042,392.184478 506.81042,382.263442 L506.81042,321.034123 C506.81042,318.961147 506.037108,317.395177 504.491623,316.33792 C503.433228,315.606147 502.904599,314.773088 502.904599,313.837034 L502.904599,311.153489 C502.904599,310.219711 503.433228,309.751399 504.491623,309.751399 L518.100541,309.751399 C518.995625,309.751399 519.443451,310.178741 519.443451,311.032285 L519.443451,313.837034 C519.443451,314.773088 518.914254,315.606147 517.856996,316.338489 C516.310373,317.395746 515.537631,318.961147 515.537631,321.034123 L515.537631,382.633881"/>
    <path fill="#A49588" d="M460.723554,378.156185 L463.431567,378.449235 L463.115756,384.316502 C462.643461,393.108582 460.343442,400.283479 456.281707,405.642034 C451.808563,411.540597 445.636866,414.658312 438.431241,414.658312 C433.007248,414.658312 425.816987,412.959188 419.511567,405.860541 C425.133582,410.804272 431.152211,412.073778 435.846707,412.073778 C443.052332,412.073778 449.22403,408.956063 453.697174,403.058069 C457.759478,397.698946 460.058927,390.524049 460.531222,381.731968 L460.531222,381.731968 L460.723554,378.156185 Z M435.509272,321.917257 C435.949701,322.414021 436.708218,323.490056 437.602164,325.673993 C437.108246,327.138106 436.360541,330.17445 435.752248,336.141866 C435.085345,342.686847 434.747341,349.410504 434.747341,356.126194 C434.747341,370.774729 435.552519,381.551586 437.140112,388.156315 C437.414953,389.300065 437.71028,390.248069 438.005606,391.030485 C437.728489,391.375317 437.556642,391.486278 437.557211,391.486847 C437.557211,391.486847 437.540709,391.490261 437.503153,391.490261 C436.913638,391.490261 435.591782,389.883321 434.555578,385.571782 C432.967985,378.967052 432.162808,368.190196 432.162808,353.54166 C432.162808,346.82597 432.500812,340.102313 433.168284,333.557332 C434.016138,325.234701 435.135989,322.612043 435.459767,322.006595 C435.476269,321.974729 435.492201,321.94514 435.509272,321.917257 Z M457.295149,307.731912 C459.408526,308.954188 460.989291,311.299729 460.989291,314.716185 L460.989291,314.716185 L460.989291,334.733517 C460.989291,339.927052 457.285476,342.644739 453.627183,342.644739 L453.627183,342.644739 L450.941931,342.644739 C446.972379,342.644739 444.93639,340.52681 444.076017,339.263563 C443.994646,339.143498 443.914981,339.018312 443.837593,338.888573 C444.94208,339.553769 446.417575,340.060205 448.357397,340.060205 L448.357397,340.060205 L451.042649,340.060205 C454.700942,340.060205 458.404757,337.343088 458.404757,332.148983 L458.404757,332.148983 L458.404757,312.131651 C458.404757,310.380177 457.984244,308.915494 457.295149,307.731912 Z"/>
    <path fill="#0D4286" d="M454.33847,381.398517 C453.931045,388.966614 452.069179,394.937444 448.754011,399.310438 C445.437705,403.684571 441.134701,405.871353 435.846707,405.871353 C428.279179,405.871353 422.207062,401.754422 417.629785,393.519991 C413.052509,385.287836 410.763871,373.242043 410.763871,357.384319 C410.763871,341.730308 412.991054,329.66403 417.446558,321.186623 C421.901493,312.709216 427.62764,308.469944 434.626138,308.469944 C437.514534,308.469944 440.707929,309.450382 444.207463,311.412397 C444.69569,311.658787 445.062146,311.78056 445.306259,311.78056 C445.590205,311.78056 445.997062,311.53417 446.526259,311.040252 C446.810774,310.629981 447.156744,310.403507 447.563601,310.361399 L451.043218,310.361399 C451.815392,310.361399 452.202332,310.952052 452.202332,312.131651 L452.202332,332.148983 C452.202332,333.288181 451.815392,333.85778 451.043218,333.85778 L448.357397,333.85778 C447.502715,333.85778 446.922873,333.63472 446.617873,333.186325 C446.312873,332.739067 445.895774,331.519067 445.367146,329.524618 C442.885037,320.125951 439.609701,315.426903 435.541138,315.426903 C433.14097,315.426903 431.289916,316.646903 429.987976,319.085765 C428.685466,321.525196 427.689095,326.139459 426.997155,332.929123 C426.305215,339.718218 425.960382,346.589254 425.960382,353.54166 C425.960382,368.746138 426.814496,379.907659 428.525,387.022239 C430.234935,394.136819 433.226894,397.693256 437.503153,397.693256 C442.631819,397.693256 445.990802,392.017752 447.579534,380.666175 L454.33847,381.398517"/>
    <path fill="#A49588" d="M382.772155,307.17597 C384.964058,308.456287 386.378097,310.805243 386.378097,313.617388 L386.378097,313.617388 L386.378097,316.424981 C386.378097,318.10305 385.864832,321.267425 382.472845,323.814972 L382.472845,323.814972 L382.472845,405.709179 C382.472845,410.434972 379.117276,413.864515 374.495616,413.864515 L374.495616,413.864515 L371.805812,413.864515 C368.721101,413.864515 366.096166,412.421455 364.455084,409.915448 C365.825877,410.798013 367.445905,411.279981 369.221278,411.279981 L369.221278,411.279981 L371.911082,411.279981 C376.532743,411.279981 379.888312,407.850438 379.888312,403.124646 L379.888312,403.124646 L379.888312,321.230438 C383.280299,318.682892 383.793563,315.518517 383.793563,313.840448 L383.793563,313.840448 L383.793563,311.032854 C383.793563,309.600037 383.420849,308.290131 382.772155,307.17597 Z M347.542948,370.344543 L350.127481,377.136483 L350.127481,395.773918 C353.513209,398.240093 354.033302,401.388535 354.033302,403.085382 L354.033302,403.085382 L354.033302,405.830951 C354.033302,410.238657 350.76195,413.437743 346.254664,413.437743 L346.254664,413.437743 L332.624692,413.437743 C329.772146,413.437743 327.392463,412.014599 326.110438,409.812453 C327.242239,410.473097 328.577183,410.853209 330.040159,410.853209 L330.040159,410.853209 L343.670131,410.853209 C348.177416,410.853209 351.448769,407.654123 351.448769,403.246418 L351.448769,403.246418 L351.448769,400.500849 C351.448769,398.804002 350.928675,395.65556 347.542948,393.189384 L347.542948,393.189384 L347.542948,370.344543 Z M350.777882,307.327901 C350.909897,307.406996 351.04305,307.478125 351.172789,307.568032 C353.039207,308.864851 353.920065,310.772808 354.421381,312.095802 L354.421381,312.095802 L354.666063,312.741651 L354.666063,313.848983 C354.666063,316.35556 355.68292,318.616315 357.559011,320.370634 L357.559011,320.370634 L358.571884,323.041091 L358.571884,327.272966 L351.836847,309.511269 C351.595578,308.875093 351.262696,308.102351 350.777882,307.327901 Z"/>
    <path fill="#0D4286" d="M364.774879,361.125121 L364.774879,321.06542 C364.774879,318.986754 364.001567,317.417369 362.455513,316.356698 C361.397687,315.663619 360.869058,314.827715 360.869058,313.848983 L360.869058,311.158041 C360.869058,310.220849 361.397687,309.751399 362.455513,309.751399 L376.248228,309.751399 C377.142174,309.751399 377.591138,310.178741 377.591138,311.032854 L377.591138,313.840448 C377.591138,314.777071 377.081856,315.6107 376.065569,316.343041 C374.478545,317.4407 373.685317,319.007808 373.685317,321.041521 L373.685317,403.124646 C373.685317,404.427155 373.094095,405.077556 371.911082,405.077556 L369.221847,405.077556 C367.997864,405.077556 367.141474,404.427155 366.653815,403.124646 L341.340522,336.603918 L341.340522,393.299776 C341.340522,395.415998 342.121231,397.002453 343.683787,398.059711 C344.725112,398.751651 345.246343,399.565364 345.246343,400.500849 L345.246343,403.246418 C345.246343,404.183041 344.72056,404.650784 343.6707,404.650784 L330.040159,404.650784 C329.151903,404.650784 328.706922,404.223442 328.706922,403.368759 L328.706922,400.500849 C328.706922,399.606334 329.234981,398.792052 330.293377,398.059711 C331.839431,396.960914 332.612743,395.37389 332.612743,393.299776 L332.612743,321.041521 C332.612743,318.966838 331.839431,317.400868 330.293377,316.343041 C329.234981,315.651101 328.706922,314.816903 328.706922,313.840448 L328.706922,311.154627 C328.706922,310.219711 329.233843,309.751399 330.288256,309.751399 L343.178489,309.751399 C344.111698,309.751399 344.739338,309.863498 345.063685,310.087696 C345.388032,310.313032 345.71181,310.852472 346.036157,311.709431 L364.774879,361.125121"/>
    <path fill="#A49588" d="M317.423629,307.176539 C318.072323,308.290131 318.444468,309.600037 318.444468,311.032854 L318.444468,313.840448 C318.444468,315.521362 317.926651,318.662976 314.538647,321.18833 L314.538647,393.205317 C317.923237,395.663526 318.444468,398.802864 318.444468,400.500849 L318.444468,403.246418 C318.444468,407.654123 315.168563,410.853209 310.655019,410.853209 L291.614142,410.853209 C290.147183,410.853209 288.808825,410.472528 287.674179,409.809608 C288.95791,412.013461 291.341576,413.437743 294.198675,413.437743 L313.239552,413.437743 C317.753097,413.437743 321.029002,410.238657 321.029002,405.830951 L321.029002,403.085382 C321.029002,401.387397 320.507771,398.24806 317.123181,395.789851 L317.123181,323.772864 C320.511185,321.247509 321.029002,318.105896 321.029002,316.424981 L321.029002,313.617388 C321.029002,310.805243 319.615532,308.456287 317.423629,307.176539"/>
    <path fill="#0D4286" d="M308.336222,393.299776 C308.336222,395.415998 309.108396,397.002453 310.655019,398.059711 C311.712276,398.751651 312.242043,399.565364 312.242043,400.500849 L312.242043,403.246418 C312.242043,404.183041 311.712276,404.650784 310.655019,404.650784 L291.614711,404.650784 C290.719058,404.650784 290.2718,404.223442 290.2718,403.368759 L290.2718,400.500849 C290.2718,399.606334 290.79986,398.792052 291.858256,398.059711 C293.403741,396.960914 294.177052,395.37389 294.177052,393.299776 L294.177052,321.041521 C294.177052,318.966838 293.403741,317.400868 291.858256,316.343041 C290.79986,315.651101 290.2718,314.816903 290.2718,313.840448 L290.2718,311.154627 C290.2718,310.219711 290.79986,309.751399 291.858256,309.751399 L310.899132,309.751399 C311.794216,309.751399 312.242043,310.178741 312.242043,311.032854 L312.242043,313.840448 C312.242043,314.777071 311.712276,315.6107 310.655019,316.343041 C309.108396,317.4407 308.336222,319.007808 308.336222,321.041521 L308.336222,393.299776"/>
    <path fill="#A49588" d="M279.495513,306.015149 C281.733507,307.330746 283.142425,309.721241 283.142425,312.640933 L283.142425,312.640933 L283.142425,330.888582 C283.142425,335.507966 279.866521,338.861259 275.352976,338.861259 L275.352976,338.861259 L273.034179,338.861259 C270.65791,338.861259 268.856362,338.07486 267.580597,336.964683 L267.580597,336.964683 L267.580597,395.789851 C270.965187,398.24806 271.486418,401.387397 271.486418,403.085382 L271.486418,403.085382 L271.486418,405.830951 C271.486418,410.238657 268.210513,413.437743 263.696399,413.437743 L263.696399,413.437743 L244.656091,413.437743 C241.798424,413.437743 239.414757,412.013461 238.131595,409.809608 C239.265672,410.472528 240.604599,410.853209 242.071558,410.853209 L242.071558,410.853209 L261.111866,410.853209 C265.625979,410.853209 268.901884,407.654123 268.901884,403.246418 L268.901884,403.246418 L268.901884,400.500849 C268.901884,398.802864 268.380653,395.663526 264.996063,393.205317 L264.996063,393.205317 L264.996063,334.380149 C266.271828,335.490326 268.073377,336.276726 270.449646,336.276726 L270.449646,336.276726 L272.768442,336.276726 C277.281987,336.276726 280.557892,332.923433 280.557892,328.304049 L280.557892,328.304049 L280.557892,310.056399 C280.557892,308.541073 280.17209,307.170849 279.495513,306.015149 Z M238.431474,334.660681 L238.431474,338.557966 C237.740672,338.752006 237.005485,338.861259 236.23445,338.861259 L236.23445,338.861259 L233.853629,338.861259 C230.681856,338.861259 228.09334,337.389179 226.698078,335.06014 C227.984655,335.83459 229.538675,336.276726 231.269095,336.276726 L231.269095,336.276726 L233.649916,336.276726 C235.49528,336.276726 237.14945,335.685504 238.431474,334.660681 L238.431474,334.660681 Z"/>
    <path fill="#0D4286" d="M258.793069,316.8307 L258.793069,393.299776 C258.793069,395.415998 259.565812,397.002453 261.112435,398.059711 C262.169692,398.751651 262.69889,399.565364 262.69889,400.500849 L262.69889,403.246418 C262.69889,404.183041 262.169692,404.650784 261.112435,404.650784 L242.071558,404.650784 C241.175905,404.650784 240.728647,404.223442 240.728647,403.368759 L240.728647,400.500849 C240.728647,399.606334 241.256707,398.792052 242.315672,398.059711 C243.861157,396.960914 244.634468,395.37389 244.634468,393.299776 L244.634468,316.8307 L241.949216,316.8307 C239.955336,316.8307 238.479841,317.583526 237.525009,319.08861 C236.56847,320.594263 235.703545,323.909431 234.930802,329.03639 C234.848862,329.72833 234.42209,330.073731 233.649347,330.073731 L231.269095,330.073731 C229.885784,330.073731 229.194412,329.484785 229.194412,328.304049 L229.194412,310.544627 C229.194412,309.161884 229.844813,308.469944 231.147323,308.469944 C231.960466,308.469944 233.405233,308.633256 235.479916,308.958172 C238.815569,309.487369 241.339216,309.751399 243.048013,309.751399 L264.6518,309.751399 C265.750597,309.588657 267.092938,309.365028 268.679963,309.080513 C271.121101,308.713489 272.464011,308.530261 272.707556,308.530261 C273.805784,308.530261 274.355466,309.040112 274.355466,310.056399 L274.355466,328.304049 C274.355466,329.484785 273.826269,330.073731 272.769011,330.073731 L270.449646,330.073731 C269.513022,330.073731 268.954235,329.810271 268.771576,329.280504 C268.58778,328.752444 268.292453,327.430019 267.886735,325.313797 C267.153825,321.815401 266.400429,319.526194 265.628256,318.448451 C264.854944,317.37014 263.492118,316.8307 261.539776,316.8307 L258.793069,316.8307"/>
    <path fill="#A49588" d="M204.147994,378.603442 C206.386558,379.911073 207.799459,382.318069 207.799459,385.265075 L207.799459,385.265075 L207.799459,413.437743 L159.791549,413.437743 C156.914534,413.437743 154.509813,412.003787 153.197631,409.780588 C154.351623,410.461147 155.713881,410.853209 157.207584,410.853209 L157.207584,410.853209 L205.214925,410.853209 L205.214925,382.680541 C205.214925,381.148713 204.827416,379.767108 204.147994,378.603442 Z M193.714263,339.74667 C195.952826,341.057715 197.363451,343.456744 197.363451,346.389524 L197.363451,346.389524 L197.363451,369.397108 C197.363451,371.628843 196.501371,373.576632 195.078797,374.951978 L195.078797,374.951978 L194.861996,374.951978 C193.081502,374.951978 191.06486,375.563116 189.416381,377.065354 L189.416381,377.065354 L186.88875,377.065354 C184.961446,377.065354 183.514972,376.500308 182.472509,375.822593 L182.472509,375.822593 L182.472509,391.172743 C182.306922,391.18014 182.125401,391.185261 181.923965,391.185261 L181.923965,391.185261 L179.887976,391.185261 L179.887976,373.23806 C180.930438,373.915774 182.376912,374.480821 184.304216,374.480821 L184.304216,374.480821 L187.111241,374.480821 C191.482528,374.480821 194.778918,371.184431 194.778918,366.812575 L194.778918,366.812575 L194.778918,343.804991 C194.778918,342.281698 194.392547,340.906353 193.714263,339.74667 Z M201.764328,306.915354 C204.162789,308.303218 205.297435,310.740942 205.297435,313.068274 L205.297435,313.068274 L205.296815,331.269253 C205.288141,332.567708 205.158022,335.122733 203.20625,337.074506 C201.113927,339.166828 198.316576,339.166828 197.263871,339.166828 L195.005392,339.166828 C194.372631,339.166828 193.765476,339.08944 193.182789,338.956287 C192.158535,337.638414 190.693853,336.703498 188.945793,336.302332 C188.739804,336.043993 188.546903,335.772565 188.37278,335.485205 C189.542705,336.187388 190.919757,336.582295 192.420858,336.582295 L192.420858,336.582295 L194.904215,336.581733 C196.090057,336.573586 198.664382,336.447306 200.621716,334.489972 C202.712901,332.398787 202.712901,329.615093 202.712901,328.42639 L202.712901,310.483741 C202.712901,309.269431 202.398228,308.02667 201.764328,306.915354 Z M181.374851,323.338694 C182.256278,323.338694 182.725728,323.451931 182.927164,323.519646 C183.282239,324.237192 183.590084,325.042369 183.855821,325.923228 L183.855821,325.923228 L182.472509,325.923228 L182.472509,336.215271 C181.681558,336.35639 180.768834,336.638629 179.887976,337.208797 L179.887976,337.208797 L179.887976,323.338694 Z"/>
    <path fill="#0D4286" d="M199.0125,404.650784 L157.207584,404.650784 C156.231129,404.650784 155.742901,404.162556 155.742901,403.185532 L155.742901,400.500849 C155.742901,399.646166 156.414356,398.71125 157.757267,397.693256 C158.936297,396.757771 159.526381,395.293657 159.526381,393.299776 L159.526381,321.041521 C159.526381,318.927006 158.773554,317.34055 157.26847,316.281586 C156.251045,315.589646 155.742901,314.777071 155.742901,313.840448 L155.742901,310.911082 C155.742901,310.13834 156.231129,309.751399 157.207584,309.751399 L188.575924,309.751399 C189.145522,309.751399 190.223834,309.690513 191.810289,309.568172 C193.234571,309.44583 194.129655,309.384944 194.49611,309.384944 C195.838451,309.384944 196.509907,309.751399 196.509907,310.483741 L196.509907,328.42639 C196.509907,329.362444 196.418293,329.921231 196.235065,330.10389 C196.051838,330.287118 195.533451,330.3793 194.678769,330.3793 L192.420858,330.3793 C191.444403,330.3793 190.895289,329.810271 190.772948,328.670504 C190.325121,325.497024 189.52222,322.781045 188.362537,320.522565 C187.203424,318.265224 184.873246,317.1357 181.374851,317.1357 L173.684981,317.1357 L173.684981,351.677519 L176.492575,351.677519 C178.241203,351.677519 179.441856,351.34236 180.092826,350.671474 C180.743797,350.000019 181.558078,347.894608 182.533965,344.354674 C182.85945,343.216045 183.083647,342.584422 183.205989,342.462649 C183.327761,342.340877 183.693647,342.279991 184.304216,342.279991 L186.989468,342.279991 C188.046726,342.279991 188.575924,342.788703 188.575924,343.804991 L188.575924,366.812575 C188.575924,367.789599 188.088265,368.277826 187.111241,368.277826 L184.304216,368.277826 C183.693647,368.277826 183.266875,368.125326 183.022192,367.819757 C182.778647,367.514757 182.452024,366.56903 182.046306,364.982006 C181.313396,362.09361 180.520168,360.33417 179.665485,359.703685 C178.81194,359.072631 177.631203,358.757388 176.126119,358.757388 L173.684981,358.757388 L173.684981,397.388256 L181.923965,397.388256 C184.975672,397.388256 187.090756,396.666726 188.270924,395.221959 C189.450522,393.77833 190.915205,389.820728 192.664972,383.351427 C193.071259,381.886744 193.803601,381.154972 194.861996,381.154972 L197.486362,381.154972 C198.502649,381.154972 199.0125,381.663685 199.0125,382.680541 L199.0125,404.650784"/>
    <path fill="#A49588" d="M144.275812,307.175401 C146.467715,308.455149 147.881754,310.804674 147.881754,313.617388 L147.881754,313.617388 L147.881754,316.424981 C147.881754,319.285494 146.518927,321.889944 144.036819,323.785951 L144.036819,323.785951 L144.036819,395.773918 C147.422547,398.240093 147.942071,401.388535 147.942071,403.085382 L147.942071,403.085382 L147.942071,405.830951 C147.942071,410.238657 144.668442,413.437743 140.157743,413.437743 L140.157743,413.437743 L121.169785,413.437743 C119.446763,413.437743 117.89445,412.921063 116.651688,412.028256 C115.372509,412.925616 113.764431,413.437743 111.957761,413.437743 L111.957761,413.437743 L92.9168843,413.437743 C90.0597854,413.437743 87.6761194,412.013461 86.3929571,409.809608 C87.5270336,410.472528 88.8659608,410.853209 90.3323507,410.853209 L90.3323507,410.853209 L109.373228,410.853209 C111.179897,410.853209 112.787976,410.341082 114.067724,409.443722 C115.309916,410.337099 116.862229,410.853209 118.585252,410.853209 L118.585252,410.853209 L137.573209,410.853209 C142.083909,410.853209 145.358106,407.654123 145.358106,403.246418 L145.358106,403.246418 L145.358106,400.500849 C145.358106,398.804002 144.838013,395.65556 141.452285,393.189384 L141.452285,393.189384 L141.452285,321.201418 C143.934394,319.30541 145.29722,316.700961 145.29722,313.840448 L145.29722,313.840448 L145.29722,311.032854 C145.29722,309.599468 144.924506,308.289562 144.275812,307.175401 Z M114.949151,364.532472 L114.949151,393.171744 C114.641306,393.402201 114.35736,393.638349 114.095037,393.876772 C113.837267,393.648591 113.558442,393.424394 113.256856,393.205317 L113.256856,393.205317 L113.256856,364.532472 L114.949151,364.532472 Z M114.059757,320.532808 C114.332323,320.774076 114.628218,321.010793 114.949151,321.24125 L114.949151,321.24125 L114.949151,343.583638 L113.256856,343.583638 L113.256856,321.18833 C113.544785,320.973806 113.812229,320.755299 114.059757,320.532808 Z"/>
    <path fill="#0D4286" d="M135.249291,321.041521 L135.249291,393.299776 C135.249291,395.415998 136.030569,397.002453 137.593125,398.059711 C138.635019,398.751651 139.155112,399.565364 139.155112,400.500849 L139.155112,403.246418 C139.155112,404.183041 138.62819,404.650784 137.573209,404.650784 L118.584683,404.650784 C117.692444,404.650784 117.246325,404.223442 117.246325,403.368759 L117.246325,400.500849 C117.246325,399.606334 117.754468,398.792052 118.771894,398.059711 C120.358349,396.960914 121.152146,395.37389 121.152146,393.299776 L121.152146,358.330047 L107.054431,358.330047 L107.054431,393.299776 C107.054431,395.415998 107.826604,397.002453 109.373228,398.059711 C110.431054,398.751651 110.960252,399.565364 110.960252,400.500849 L110.960252,403.246418 C110.960252,404.183041 110.431054,404.650784 109.373228,404.650784 L90.3323507,404.650784 C89.4372668,404.650784 88.9900093,404.223442 88.9900093,403.368759 L88.9900093,400.500849 C88.9900093,399.606334 89.518069,398.792052 90.5764646,398.059711 C92.1225187,396.960914 92.8958302,395.37389 92.8958302,393.299776 L92.8958302,321.041521 C92.8958302,318.966838 92.1225187,317.400868 90.5764646,316.343041 C89.518069,315.651101 88.9900093,314.816903 88.9900093,313.840448 L88.9900093,311.154627 C88.9900093,310.219711 89.518069,309.751399 90.5764646,309.751399 L109.617341,309.751399 C110.512425,309.751399 110.960252,310.178741 110.960252,311.032854 L110.960252,313.840448 C110.960252,314.777071 110.431054,315.6107 109.373228,316.343041 C107.826604,317.4407 107.054431,319.007808 107.054431,321.041521 L107.054431,349.786063 L121.152146,349.786063 L121.152146,321.041521 C121.152146,318.966838 120.358349,317.400868 118.771894,316.343041 C117.713498,315.651101 117.184869,314.816903 117.184869,313.840448 L117.184869,311.154627 C117.184869,310.219711 117.71236,309.751399 118.767341,309.751399 L137.755299,309.751399 C138.648106,309.751399 139.094226,310.178741 139.094226,311.032854 L139.094226,313.840448 C139.094226,314.777071 138.593479,315.6107 137.592556,316.343041 C136.030569,317.4407 135.249291,319.007808 135.249291,321.041521"/>
    <path fill="#A49588" d="M78.213722,306.015149 C80.4517164,307.330746 81.8606343,309.721241 81.8606343,312.640933 L81.8606343,312.640933 L81.8606343,330.888582 C81.8606343,335.507966 78.5847295,338.861259 74.0717537,338.861259 L74.0717537,338.861259 L71.7523881,338.861259 C69.3761194,338.861259 67.5745709,338.07486 66.298806,336.964683 L66.298806,336.964683 L66.298806,395.789851 C69.6833955,398.24806 70.2046269,401.387397 70.2046269,403.085382 L70.2046269,403.085382 L70.2046269,405.830951 C70.2046269,410.238657 66.928722,413.437743 62.4146082,413.437743 L62.4146082,413.437743 L43.3743004,413.437743 C40.5166325,413.437743 38.1329664,412.013461 36.8503731,409.809608 C37.9844496,410.472528 39.3228078,410.853209 40.7897668,410.853209 L40.7897668,410.853209 L59.8300746,410.853209 C64.3441884,410.853209 67.6200933,407.654123 67.6200933,403.246418 L67.6200933,403.246418 L67.6200933,400.500849 C67.6200933,398.802864 67.0988619,395.663526 63.7142724,393.205317 L63.7142724,393.205317 L63.7142724,334.380149 C64.9900373,335.490326 66.7915858,336.276726 69.1678545,336.276726 L69.1678545,336.276726 L71.4872201,336.276726 C76.0001959,336.276726 79.2761007,332.923433 79.2761007,328.304049 L79.2761007,328.304049 L79.2761007,310.056399 C79.2761007,308.541073 78.8908675,307.170849 78.213722,306.015149 Z M37.1496828,334.660681 L37.1496828,338.557966 C36.4588806,338.752006 35.723694,338.861259 34.9526586,338.861259 L34.9526586,338.861259 L32.5718377,338.861259 C29.4000653,338.861259 26.8115485,337.389179 25.4162873,335.06014 C26.7028638,335.83459 28.2574534,336.276726 29.9873041,336.276726 L29.9873041,336.276726 L32.368125,336.276726 C34.2134888,336.276726 35.8682276,335.685504 37.1496828,334.660681 L37.1496828,334.660681 Z"/>
    <path fill="#0D4286" d="M57.511847,316.8307 L57.511847,393.299776 C57.511847,395.415998 58.2840205,397.002453 59.8306437,398.059711 C60.8879011,398.751651 61.4170989,399.565364 61.4170989,400.500849 L61.4170989,403.246418 C61.4170989,404.183041 60.8879011,404.650784 59.8306437,404.650784 L40.7897668,404.650784 C39.8941138,404.650784 39.4468563,404.223442 39.4468563,403.368759 L39.4468563,400.500849 C39.4468563,399.606334 39.9754851,398.792052 41.0338806,398.059711 C42.5793657,396.960914 43.3526772,395.37389 43.3526772,393.299776 L43.3526772,316.8307 L40.6674254,316.8307 C38.6735448,316.8307 37.1980504,317.583526 36.2432183,319.08861 C35.2866791,320.594263 34.4217537,323.909431 33.6495802,329.03639 C33.5670709,329.72833 33.1402985,330.073731 32.368125,330.073731 L29.9878731,330.073731 C28.6039925,330.073731 27.9126213,329.484785 27.9126213,328.304049 L27.9126213,310.544627 C27.9126213,309.161884 28.5630224,308.469944 29.8655317,308.469944 C30.6786754,308.469944 32.1234422,308.633256 34.198125,308.958172 C37.534347,309.487369 40.0574254,309.751399 41.766222,309.751399 L63.3700093,309.751399 C64.468806,309.588657 65.8111474,309.365028 67.3981716,309.080513 C69.8393097,308.713489 71.1822201,308.530261 71.4257649,308.530261 C72.5245616,308.530261 73.0736754,309.040112 73.0736754,310.056399 L73.0736754,328.304049 C73.0736754,329.484785 72.5444776,330.073731 71.4872201,330.073731 L69.1678545,330.073731 C68.2312313,330.073731 67.6730131,329.810271 67.4897854,329.280504 C67.3059888,328.752444 67.0106623,327.430019 66.604944,325.313797 C65.8720336,321.815401 65.1186381,319.526194 64.3464646,318.448451 C63.573153,317.37014 62.2103265,316.8307 60.2579851,316.8307 L57.511847,316.8307"/>
    <polygon fill="#0D4286" points=".034 282.227 220.208 282.227 220.208 278.092 .034 278.092"/>
    <polygon fill="#0D4286" points="402.251 282.227 609.96 282.227 609.96 278.092 402.251 278.092"/>
    <path fill="#0D4286" stroke="#0D4286" stroke-width=".569" d="M390.268554,281.042705 C390.268554,281.874627 354.939767,282.548358 311.360047,282.548358 C267.779757,282.548358 232.451539,281.874627 232.451539,281.042705 C232.451539,280.211353 267.779757,279.537052 311.360047,279.537052 C354.939767,279.537052 390.268554,280.211353 390.268554,281.042705"/>
    <path fill="#A49588" d="M390.092155,125.720886 C392.554347,125.720886 394.64667,127.499674 394.958498,129.858871 C395.095634,130.893937 394.882817,131.919328 394.39459,132.800756 C394.534002,132.952687 394.546521,133.298657 394.383209,133.423274 C394.123731,133.621297 393.844338,133.782901 393.54958,133.916054 C393.3857,134.075382 393.212146,134.225037 393.024366,134.361604 C391.897687,135.179869 391.200625,136.302565 391.060644,137.523134 L391.060644,137.523134 L389.864543,148.004664 C389.800812,148.565728 389.964123,149.113703 390.324888,149.548442 C390.555914,149.82556 390.850672,150.022444 391.177864,150.145924 C391.283703,150.140233 391.374179,150.170392 391.448153,150.229571 C391.550578,150.252332 391.652435,150.275093 391.759981,150.282491 C405.63236,151.249272 418.491866,158.7525 426.158405,170.35445 L426.158405,170.35445 L431.497043,178.431259 C441.453358,193.496325 441.453358,212.965681 431.497043,228.030746 L431.497043,228.030746 L426.158405,236.108694 C418.491866,247.710075 405.63236,255.213302 391.76055,256.180084 L391.76055,256.180084 L379.102481,257.06208 C378.116353,257.130364 377.319711,257.893433 377.207612,258.875578 L377.207612,258.875578 L376.12361,268.37041 C375.944935,269.936381 376.479254,271.427808 377.553013,272.35931 C378.773582,273.418274 379.374478,275.004729 379.162799,276.604272 C378.85097,278.962901 376.759216,280.741688 374.295886,280.741688 L374.295886,280.741688 L248.44014,280.741688 C245.977948,280.741688 243.885625,278.962901 243.573797,276.604272 C243.361549,275.00416 243.963582,273.417136 245.183582,272.35931 C246.257341,271.427808 246.79166,269.93695 246.612416,268.370979 L246.612416,268.370979 L231.675382,137.522565 C231.53597,136.302565 230.838909,135.179869 229.712799,134.361604 C229.348619,134.097006 229.029963,133.785746 228.759674,133.441483 L228.759674,133.441483 L228.741465,133.429534 C228.692528,133.393116 228.660093,133.332229 228.636763,133.263946 C227.94084,132.290905 227.615924,131.081147 227.777528,129.858302 C228.089925,127.499674 230.181679,125.720886 232.64444,125.720886 L232.64444,125.720886 Z M233.267528,129.034347 C233.216884,129.104338 233.159412,129.162948 233.085438,129.190261 C232.69167,129.333088 232.243843,129.547612 231.875112,129.820177 C231.814226,130.453507 232.218806,130.948563 232.182388,131.560271 C232.178974,131.615466 232.172146,131.675784 232.160765,131.735532 C233.637966,131.664972 235.196539,131.849338 236.521241,131.856166 C239.408498,131.870961 242.294618,131.99444 245.180168,132.087192 C251.257976,132.282369 257.416017,132.270989 263.467649,132.895215 C263.644618,132.913424 263.657705,133.278172 263.477323,133.29695 C257.439347,133.923451 251.293825,133.910364 245.229674,134.104972 C242.18764,134.202845 239.145606,134.326325 236.101866,134.338274 C235.498694,134.34055 234.852276,134.378675 234.191063,134.409403 C234.460784,135.392118 234.692379,136.393041 234.89097,137.408759 C235.883358,137.207892 237.023125,137.481026 238.128181,137.598246 C240.226194,137.820737 242.278116,138.320914 244.368731,138.561045 C244.443843,138.570149 244.450103,138.724356 244.372715,138.733461 C242.297463,138.973591 240.263181,139.473769 238.179394,139.696259 C237.21375,139.799254 236.228759,140.017192 235.333106,139.942649 C235.456586,140.762052 235.564701,141.586576 235.666558,142.41167 C237.264394,142.168694 239.046026,142.504991 240.605737,142.64611 C243.304076,142.890793 246.008106,142.977854 248.671735,143.510466 C248.974459,143.571353 248.89764,144.189888 248.624506,144.244515 C245.841381,144.805009 243.01444,144.859067 240.197174,145.135047 C238.862799,145.265354 237.383321,145.502071 236.007976,145.362659 C236.108694,146.278228 236.208843,147.190951 236.313545,148.094571 C237.258134,148.026287 238.267593,148.283489 239.376063,148.386483 C241.619748,148.595886 243.910662,148.768302 246.15833,148.89861 C250.674151,149.160364 255.192817,149.298069 259.71319,149.576894 C259.86569,149.586567 259.875364,149.912052 259.721726,149.921157 C255.212733,150.20055 250.704879,150.337687 246.199869,150.600009 C243.961306,150.730317 241.678927,150.908993 239.443209,151.111567 C238.47472,151.199767 237.57736,151.406325 236.730075,151.412584 C236.824534,152.130131 236.916716,152.848246 237.010606,153.565793 C238.204431,153.643181 239.405084,153.859981 240.571595,154.021586 C242.068144,154.228713 243.688172,154.337397 245.080019,154.938862 C245.31958,155.042425 245.348032,155.548293 245.097659,155.658116 C243.726297,156.258442 242.11139,156.373386 240.634188,156.578806 C239.590588,156.724478 238.524226,156.915103 237.459002,157.008424 C237.57736,157.927976 237.697994,158.84639 237.815784,159.765942 C239.292416,159.704487 240.935205,160.2132 242.382817,160.351474 C245.022547,160.604123 247.699263,160.643955 250.288349,161.244851 C250.461903,161.285252 250.480681,161.719422 250.300868,161.76153 C247.7243,162.361287 245.066362,162.404534 242.43972,162.657183 C241.116157,162.784646 239.63611,163.213125 238.263041,163.242715 L238.263041,163.242715 L238.582836,165.728237 C243.316026,166.393433 248.107257,166.470821 252.852397,167.056922 C253.13805,167.092201 253.160812,167.670905 252.86833,167.707323 C249.684039,168.102229 246.478694,168.238228 243.28416,168.520466 C241.851912,168.646791 240.427631,168.830019 239.001073,168.985364 C239.195681,170.493293 239.388582,172.001222 239.582052,173.509151 C241.467248,173.161474 243.60111,173.695793 245.496549,173.822118 C248.373563,174.013881 251.411614,173.864795 254.231726,174.475364 C254.583386,174.551614 254.489496,175.254366 254.177099,175.322649 C251.257976,175.956549 248.052062,175.789254 245.069776,175.995812 C243.392276,176.111894 241.598125,176.528424 239.943955,176.325849 L239.943955,176.325849 L240.378694,179.709869 C241.599832,179.531763 242.90917,179.706455 244.199729,179.784412 C246.757519,179.938619 249.315308,180.092826 251.873666,180.247034 C256.961931,180.553741 262.16514,180.517323 267.22097,181.154636 C267.455979,181.184795 267.475326,181.659935 267.234058,181.690662 C262.19416,182.329683 257.004608,182.291558 251.931138,182.598265 C249.380746,182.752472 246.830354,182.906679 244.279963,183.060886 C243.121987,183.130877 241.940681,183.278825 240.819692,183.18209 C240.997799,184.580765 241.17306,185.97944 241.349459,187.377547 C242.550681,187.330317 243.887901,187.778144 245.173909,187.887966 C247.42556,188.080299 249.744356,187.993806 251.932276,188.599254 C252.155336,188.661278 252.180942,189.199011 251.948778,189.263312 C249.776222,189.867621 247.463685,189.805597 245.225121,189.978013 C244.05861,190.06792 242.853974,190.442341 241.741521,190.480466 C241.90028,191.742575 242.061315,193.004683 242.219506,194.266791 C243.979515,193.817826 246.231735,194.386856 247.940532,194.500093 C250.693498,194.682752 253.5193,194.583172 256.21195,195.234711 C256.583526,195.324049 256.625065,196.247584 256.239263,196.340905 C253.556856,196.991875 250.746418,196.897416 248.004263,197.080075 C246.384804,197.18819 244.318088,197.695196 242.608722,197.39361 C242.752118,198.543619 242.893237,199.694198 243.036063,200.844776 C243.292696,200.807789 243.545345,200.780476 243.787752,200.781045 C244.444412,200.781045 245.171063,200.965979 245.828293,201.028573 C247.215019,201.15945 248.673442,201.127584 249.973675,201.660765 C250.195028,201.75181 250.221203,202.228657 249.989608,202.324823 C248.702463,202.859142 247.254851,202.847192 245.876091,202.960429 C245.238778,203.01278 244.478554,203.230149 243.8475,203.207957 C243.673377,203.201698 243.498116,203.180075 243.322285,203.158451 C243.43666,204.084263 243.552174,205.009506 243.665979,205.935317 C245.29056,205.872155 246.90319,206.227229 248.59264,206.292099 C251.203349,206.39111 253.864701,206.348433 256.441838,206.80764 C256.800896,206.871371 256.834468,207.563312 256.462323,207.629888 C253.885756,208.093078 251.245457,208.008293 248.638162,208.145998 C247.063088,208.228507 245.521586,208.536922 243.985774,208.515299 C244.167864,210.005588 244.347677,211.495877 244.529198,212.985597 C246.276688,212.619142 248.456073,213.122164 250.084636,213.230849 C252.876297,213.416922 255.714618,213.535849 258.454496,214.124226 C258.688937,214.174869 258.626912,214.644319 258.418078,214.689272 C255.569515,215.304394 252.587799,215.410802 249.681763,215.604841 C248.236996,215.702146 246.430896,216.081688 244.876875,215.862612 C245.037341,217.187882 245.198377,218.513153 245.357705,219.838993 C246.449104,219.759328 247.580336,219.899879 248.692789,219.981819 C250.894366,220.143993 253.097649,220.189515 255.303209,220.266334 C259.67791,220.419403 264.195438,220.229347 268.524618,220.877472 C268.859207,220.926978 268.888228,221.589897 268.542826,221.642248 C264.226166,222.292649 259.715466,222.099748 255.351576,222.252817 C253.151138,222.330205 250.951838,222.370037 248.755382,222.537901 C247.74194,222.61472 246.708582,222.734785 245.703106,222.694953 C245.746353,223.054011 245.790737,223.413069 245.833414,223.772696 C245.942099,224.67916 246.049646,225.586194 246.157761,226.493228 C246.53389,226.489244 246.967491,226.539888 247.501241,226.610448 C249.678918,226.897808 251.801399,227.041772 253.999562,227.107211 C258.151203,227.23069 262.44681,227.10209 266.563741,227.667136 C266.957509,227.721194 266.991082,228.510438 266.585364,228.566203 C262.481521,229.133526 258.188759,229.003218 254.049067,229.126698 C251.800261,229.193843 249.670951,229.362276 247.439785,229.641101 C247.098937,229.683778 246.804748,229.71792 246.543563,229.736129 C246.711996,231.156427 246.878153,232.577295 247.044879,233.998162 C247.860868,233.950933 248.593209,233.990765 248.806026,234.007267 C252.596334,234.298041 256.728629,234.367463 260.450084,235.117444 C260.876856,235.203368 260.768172,236.075121 260.383507,236.153078 C257.385858,236.760802 254.22319,236.618545 251.184571,236.998088 C250.063013,237.138069 248.693927,237.446483 247.447183,237.427136 C247.602528,238.763787 247.753321,240.101007 247.905821,241.438228 C248.92097,241.537808 249.986194,241.869552 251.07361,241.981651 C253.20861,242.202435 255.39084,242.309981 257.489422,242.766912 C257.802388,242.834627 257.718741,243.458853 257.441054,243.519739 C255.236063,244.001707 252.924095,244.106409 250.679272,244.339142 C249.833694,244.426772 249.042743,244.643004 248.285933,244.767621 C248.43445,246.092892 248.577276,247.418731 248.722379,248.744002 C249.03819,248.778713 249.375625,248.820252 249.747771,248.852118 C251.321138,248.985271 252.90361,249.041604 254.480392,249.108181 C257.586726,249.239627 261.032771,248.984701 264.044646,249.792724 C264.396875,249.887183 264.437276,250.74528 264.070252,250.844291 C261.072034,251.652882 257.633955,251.402509 254.54014,251.533386 C252.809151,251.606791 251.07361,251.676213 249.348312,251.835541 C249.250438,251.844646 249.155979,251.854319 249.063228,251.863424 C249.071763,251.937966 249.080299,252.013078 249.088265,252.08819 C249.217435,253.296241 249.354002,254.505429 249.492276,255.715187 C250.17625,255.839804 250.863069,256.004254 251.527127,256.07083 C253.202351,256.238694 254.89806,256.244953 256.525485,256.705868 C256.840728,256.794636 256.877146,257.553153 256.548815,257.646474 C254.929356,258.106819 253.249011,258.117631 251.581185,258.285494 C251.009879,258.342966 250.416381,258.473274 249.821175,258.587649 C249.974244,259.933974 250.122192,261.280868 250.259328,262.627761 C252.527481,262.489487 255.189403,263.0625 257.076306,263.178582 C260.266287,263.376035 263.474478,263.497808 266.609263,264.139674 C266.795905,264.177799 266.748106,264.556772 266.580243,264.591483 C263.174599,265.291959 259.655718,265.388694 256.188619,265.603218 C254.49917,265.70792 252.45806,266.121035 250.573433,266.068116 C250.583106,266.185336 250.596194,266.301987 250.605299,266.419207 C250.714552,267.809916 250.733899,269.216558 250.435728,270.567435 C250.472146,270.568573 250.505718,270.569711 250.542705,270.57028 C252.41083,270.602146 254.281231,270.739282 256.14708,270.841138 C259.720019,271.036884 263.413022,270.987379 266.937024,271.640625 C267.129925,271.675905 267.083265,272.078209 266.906866,272.111213 C263.266213,272.790634 259.424123,272.725765 255.731688,272.92834 C253.87153,273.030196 252.003974,273.176437 250.140401,273.188386 C249.80069,273.190662 249.512761,273.200905 249.258405,273.202612 C248.750261,273.925849 248.157332,274.713386 247.917201,275.457108 C248.979011,275.64375 249.997006,275.858843 251.049142,276.210504 C251.055401,276.21278 251.061091,276.217332 251.067351,276.219608 C251.398526,276.208228 251.73084,276.201968 252.067705,276.197985 C252.926371,276.188312 253.757155,276.118321 254.527621,276.547938 C254.624356,276.601427 254.657929,276.736856 254.630616,276.848955 C255.3493,276.870578 256.052052,276.896754 256.709851,276.889925 C259.470784,276.861474 262.232854,276.877407 264.993787,276.870578 C270.354618,276.85806 275.714879,276.838144 281.07514,276.852938 C286.598713,276.867733 292.122285,276.884235 297.645289,276.908703 C302.140056,276.928619 306.986483,276.504692 311.512547,277.074291 C316.348162,276.427304 321.564459,276.925774 326.380159,276.904151 C331.74042,276.880252 337.100112,276.866026 342.460373,276.8518 C347.983377,276.836437 353.50695,276.860336 359.029953,276.872854 C361.629282,276.879114 364.229179,276.864888 366.828507,276.898461 C367.358274,276.905289 367.917631,276.891063 368.489506,276.876269 C368.443414,276.761894 368.46333,276.610532 368.570308,276.549646 C369.386297,276.085886 370.302435,276.190019 371.214021,276.200261 C371.44334,276.203106 371.669244,276.206521 371.89458,276.213918 C371.979935,276.091576 372.086912,276.011912 372.218358,276.005084 C372.700326,275.980616 373.932276,276.206521 374.331166,275.949888 C375.118134,275.443451 374.713554,274.134683 374.359049,273.204319 C373.891875,273.253825 373.32569,273.186679 372.566604,273.173591 C370.697341,273.141726 368.82694,273.00459 366.96166,272.902733 C363.389291,272.706987 359.695718,272.756493 356.171716,272.103246 C355.978815,272.067966 356.024907,271.665662 356.201875,271.632659 C359.841959,270.952668 363.684049,271.018675 367.376483,270.815532 C369.237211,270.713675 371.104767,270.567435 372.96834,270.555485 C373.133927,270.554347 373.28472,270.550933 373.428685,270.548088 C373.211884,269.849888 373.027519,269.142584 372.918265,268.41195 C372.803321,267.645466 372.771455,266.873862 372.79194,266.097705 C370.536306,266.222892 367.903974,265.660121 366.032435,265.544608 C362.842453,265.347724 359.634263,265.225382 356.499478,264.584086 C356.312836,264.545961 356.360634,264.166987 356.528498,264.132276 C359.934142,263.431231 363.453022,263.335065 366.920121,263.119972 C368.796213,263.00389 371.106474,262.506558 373.153274,262.690354 C373.370075,261.350858 373.635812,260.010224 373.825868,258.678125 C373.07361,258.551231 372.313386,258.358899 371.581614,258.285494 C369.90639,258.117631 368.210681,258.111371 366.583256,257.650457 C366.268013,257.561119 366.231595,256.803172 366.559925,256.709851 C368.179384,256.249506 369.859729,256.238694 371.526987,256.07083 C372.406707,255.982062 373.338209,255.722015 374.248088,255.612761 C374.459767,255.245168 374.786959,255.229235 374.978722,255.564394 C375.184142,255.563256 375.387854,255.576343 375.587584,255.604795 C376.105401,255.057388 376.76889,254.619235 377.63097,254.350653 C379.883759,253.649039 382.45805,253.720168 384.79278,253.499384 C387.378451,253.254132 389.966399,253.02709 392.541259,252.683965 C393.50861,252.554795 394.474823,252.406278 395.439328,252.245243 C394.827052,251.986334 394.201688,251.714338 393.510886,251.451446 C393.176297,251.323414 393.228078,250.518237 393.640625,250.617248 C396.139235,251.218144 398.944552,250.816978 401.604767,250.937043 C404.185317,250.254207 406.702136,249.397817 409.098321,248.301866 C408.229412,248.28764 407.371884,248.103274 406.81708,247.522864 C406.598004,247.293545 406.539963,246.830924 406.794319,246.597621 C407.70306,245.766269 409.284394,245.842519 410.476511,245.706521 C411.507593,245.588731 412.668414,245.275196 413.743881,245.323563 C414.939981,244.348815 416.074627,243.304076 417.160905,242.208125 C416.037071,242.538731 414.916651,242.696922 413.898088,242.527351 C413.445709,242.452239 413.397341,241.746642 413.681856,241.462696 C415.39805,239.75333 418.098666,238.900354 420.58931,238.393918 C423.091903,235.343349 425.323069,232.048097 427.414254,228.73805 C427.820541,228.095047 428.216586,227.442938 428.60694,226.785709 C428.528414,226.839198 428.451026,226.893256 428.373069,226.946175 C426.952771,227.908974 425.154067,229.368535 423.350812,229.209776 C422.731707,229.15458 422.794869,228.2282 423.079953,227.878815 C424.175905,226.535905 425.929655,225.830308 427.370438,224.909049 C428.586455,224.132323 429.722808,223.139935 430.996866,222.43889 C432.467808,219.524888 433.722519,216.501632 434.649468,213.385056 C433.881278,214.145849 432.916203,214.843479 432.100784,214.565793 C431.850979,214.481007 431.856101,214.104879 431.907882,213.909701 C432.272062,212.545168 433.659925,211.35305 434.586875,210.316278 C434.943088,209.917957 435.333442,209.32389 435.759076,208.761119 C435.95653,207.671996 436.113013,206.573769 436.218284,205.465868 C436.475485,202.753302 436.41403,199.998629 435.992379,197.303134 C435.459767,198.644338 434.67166,199.833041 433.650821,200.598386 C433.031716,201.063284 432.907668,199.905308 433.084636,199.545681 C433.782836,198.124813 434.603377,196.762556 435.02958,195.224468 C435.142248,194.817043 435.217929,194.40791 435.275401,193.99764 C435.076241,193.286922 434.85944,192.581325 434.60167,191.888246 C434.103769,190.54875 433.488647,189.260466 432.814916,188.000065 C432.492845,189.156334 431.965924,190.210177 431.244963,190.988041 C430.681623,191.594627 430.430681,190.273909 430.522864,189.945009 C430.92403,188.509347 431.314384,187.353078 431.330317,185.833769 C431.331455,185.682407 431.328041,185.53389 431.321782,185.385942 C430.36695,183.805746 429.362043,182.253433 428.400382,180.69486 C427.266306,178.858601 426.157267,177.000149 425.027174,175.155354 C424.945802,176.188144 424.727295,177.180532 424.338647,178.061959 C424.231932,178.30391 424.099298,178.450561 423.959219,178.521595 C424.316488,178.929652 424.231914,179.913001 423.656381,179.95 C423.57444,179.955121 423.493069,179.960243 423.411698,179.965933 C423.019067,179.99097 422.869412,179.452099 422.854049,179.160187 C422.83946,178.900195 422.967992,178.397852 423.28027,178.333728 C423.110206,178.144435 422.993632,177.859332 422.991185,177.544711 C422.979804,176.09084 423.174981,174.649487 423.068004,173.19334 C423.040121,172.802985 422.996875,172.332397 422.934282,171.837341 C422.560429,171.260914 422.189991,170.681642 421.804188,170.11375 C419.867211,167.263479 417.485252,165.030037 414.826744,162.978116 C414.914375,163.658106 414.901287,164.322733 414.764151,164.937854 C414.683349,165.300326 414.27194,165.774328 413.963526,165.282687 C413.207854,164.07805 412.85847,162.622472 412.114748,161.385401 C411.952575,161.115681 411.775037,160.860756 411.591241,160.61209 C408.748368,158.604552 405.841763,156.71139 402.538545,155.523256 C402.446931,155.490252 402.354748,155.466353 402.263134,155.434487 C402.612519,156.057575 402.850942,156.701716 402.936866,157.341306 C402.965317,157.558675 402.868582,158.3832 402.438965,158.1425 C401.128489,157.410159 400.218041,155.98986 398.995196,155.09819 C398.562733,154.783517 398.123442,154.537127 397.677323,154.326017 C395.254394,153.962407 392.795616,153.891847 390.295299,153.935093 C389.861698,153.942491 389.61417,153.570914 389.542472,153.128209 C388.795905,152.925065 388.1125,152.548368 387.640205,152.04819 C387.383004,152.395299 387.001185,151.983321 386.856651,151.39722 C385.893853,151.482006 384.865047,151.217407 383.732677,151.111567 C381.488993,150.902164 379.198078,150.730317 376.950979,150.600009 C372.43459,150.338256 367.915924,150.199981 363.394981,149.921157 C363.24305,149.912052 363.233377,149.586567 363.387015,149.576894 C367.896007,149.298069 372.403862,149.160933 376.908871,148.89861 C379.147435,148.768302 381.429813,148.589627 383.665532,148.386483 C384.92764,148.272108 386.067976,147.959142 387.134338,148.14806 L387.134338,148.14806 L387.283993,146.960494 C387.27944,146.427313 387.294804,145.88958 387.32667,145.349002 C385.758993,145.558974 384.025159,145.235196 382.503004,145.097491 C379.804095,144.852808 377.100634,144.765746 374.437006,144.233134 C374.134282,144.172248 374.211101,143.553713 374.484235,143.498517 C377.26736,142.938591 380.0943,142.884534 382.910998,142.608554 C384.418927,142.460606 386.111222,142.177229 387.628825,142.454916 C387.74889,141.608769 387.891147,140.761483 388.042509,139.917043 C387.092229,140.055317 386.020746,139.806651 384.98056,139.696259 C382.881978,139.473769 380.830625,138.973591 378.740009,138.733461 C378.664328,138.724356 378.658638,138.570149 378.736026,138.561045 C380.811278,138.320914 382.84556,137.820168 384.929347,137.598246 C386.155037,137.467369 387.409748,137.155541 388.47611,137.486147 C388.577966,136.680401 388.679254,135.875224 388.78111,135.069478 L388.78111,135.069478 L388.790784,134.695056 C388.792491,134.601166 388.79875,134.513535 388.808424,134.431595 C388.034543,134.391763 387.278871,134.339981 386.586931,134.336567 C383.700243,134.321203 380.814123,134.197724 377.928004,134.104972 C371.850765,133.910364 365.692724,133.921744 359.641091,133.29695 C359.464123,133.278741 359.451035,132.913993 359.631418,132.895215 C365.668825,132.269282 371.814347,132.2818 377.878498,132.087192 C380.921101,131.989319 383.963134,131.86584 387.006875,131.85389 C388.223461,131.849338 389.617584,131.700252 390.953666,131.757724 C390.938871,131.697976 390.929767,131.636521 390.926353,131.57791 C390.888797,130.964496 391.293377,130.460336 391.23875,129.829851 C391.238181,129.823022 391.235905,129.816763 391.235336,129.809935 C390.878554,129.545905 390.446091,129.336502 390.057444,129.195951 C389.970951,129.165224 389.904944,129.107183 389.849179,129.038899 C386.975009,129.269925 384.045075,129.121409 381.174888,129.124823 C377.787453,129.128806 374.39945,129.119701 371.012015,129.146446 C364.399319,129.198228 357.786054,129.265373 351.172789,129.27903 C344.39792,129.292687 337.622481,129.306343 330.847043,129.32 C324.475616,129.333088 317.949981,129.719459 311.58083,129.273909 C305.054058,129.734254 298.361698,129.332519 291.832649,129.318862 C285.218246,129.305774 278.603274,129.292118 271.988871,129.27903 C265.211726,129.265373 258.435718,129.184002 251.659142,129.141894 C248.271138,129.121409 244.883134,129.128237 241.495131,129.124254 C238.76834,129.121409 235.995457,129.250578 233.267528,129.034347 Z M321.753946,272.650653 C325.70472,272.161856 330.269478,271.799953 334.210009,272.573834 C334.442174,272.619356 334.384132,273.096772 334.173591,273.138312 C330.252407,273.913899 325.701306,273.536632 321.76305,273.052388 C321.58722,273.030765 321.572425,272.672845 321.753946,272.650653 Z M287.732789,272.530019 C289.595224,272.011063 291.590243,272.244366 293.512425,272.296147 C295.743591,272.356465 297.981017,272.495308 300.203647,272.698451 C300.338507,272.71097 300.348181,272.992071 300.211045,273.00459 C297.994104,273.208302 295.765215,273.347146 293.539739,273.406894 C291.623815,273.459244 289.607174,273.691409 287.748722,273.175868 C287.532491,273.116119 287.507453,272.593181 287.732789,272.530019 Z M345.378927,271.941642 C347.121297,271.45569 348.853424,271.521698 350.642453,271.624692 C351.151735,271.654282 351.182463,272.742836 350.670336,272.772425 C348.87903,272.875989 347.13666,272.941996 345.392015,272.458321 C345.218461,272.409953 345.198545,271.991716 345.378927,271.941642 Z M272.438405,271.624692 C274.23028,271.521129 275.97208,271.455121 277.716726,271.939366 C277.89028,271.987164 277.910196,272.405401 277.729813,272.455476 C275.987444,272.941427 274.255317,272.87542 272.466287,272.772425 C271.957006,272.742836 271.926278,271.654282 272.438405,271.624692 Z M271.46195,263.941082 C274.606978,263.865401 277.80834,263.680466 280.935159,264.094151 C281.170168,264.124879 281.189515,264.597743 280.948815,264.629608 C277.824841,265.045569 274.624049,264.858358 271.483004,264.782677 C271.108013,264.773573 271.089235,263.950187 271.46195,263.941082 Z M342.159925,264.094151 C345.283899,263.67819 348.484692,263.865401 351.625737,263.941082 C352.000728,263.950187 352.019506,264.773573 351.646791,264.782677 C348.501194,264.858358 345.300401,265.043293 342.173013,264.629608 C341.938004,264.598881 341.918657,264.126017 342.159925,264.094151 Z M298.900569,257.812062 C302.808666,257.450728 306.731558,257.260103 310.651035,257.601521 C310.853041,257.61916 310.867836,258.043088 310.661847,258.060728 C306.740662,258.403853 302.81208,258.209813 298.901707,257.850187 C298.884636,257.848479 298.883498,257.813769 298.900569,257.812062 Z M261.999619,256.549037 L262.099701,256.557351 C262.351782,256.602873 262.590774,256.617668 262.79847,256.778134 C263.003321,256.935756 263.028358,257.405774 262.817817,257.570793 C262.586222,257.752882 262.302276,257.767677 262.018899,257.81889 C261.482304,257.916194 261.358256,256.424198 262.099701,256.557351 Z M361.089841,256.537435 C361.626437,256.440131 361.750485,257.932127 361.009039,257.798405 C360.757528,257.753451 360.517966,257.738088 360.309701,257.57819 C360.10542,257.420569 360.080382,256.95055 360.290354,256.785532 C360.522519,256.603442 360.806465,256.588647 361.089841,256.537435 Z M274.506828,256.470858 C275.710326,256.453787 277.027631,256.28194 278.155448,256.73944 C278.389319,256.833899 278.417201,257.339767 278.172519,257.439916 C277.040718,257.904244 275.746744,257.728983 274.537556,257.711343 C273.142864,257.691996 271.750448,257.597537 270.358032,257.525271 C269.972799,257.505354 269.950037,256.677416 270.336409,256.656931 C271.725979,256.584664 273.11555,256.490774 274.506828,256.470858 Z M391.767379,249.846782 C391.877771,249.754599 392.020597,249.735252 392.134403,249.837677 C392.163993,249.863284 392.194151,249.88889 392.223741,249.913927 C392.509394,250.154058 392.560037,250.621231 392.475821,250.959235 C392.417211,251.192537 392.259021,251.482174 391.98361,251.489002 C391.672351,251.496968 391.489123,251.141325 391.435634,250.884123 C391.375317,250.59847 391.409459,250.129021 391.666091,249.927584 C391.700233,249.90084 391.733806,249.874095 391.767379,249.846782 Z M269.8368,249.860438 C274.481222,249.37847 279.635494,248.612556 284.263414,249.633396 C284.568983,249.700541 284.487043,250.307696 284.216185,250.367444 C279.633787,251.381455 274.444804,250.603591 269.84306,250.128451 C269.725271,250.115933 269.716166,249.872957 269.8368,249.860438 Z M338.892556,249.621446 C343.474953,248.606866 348.663937,249.385299 353.265681,249.860438 C353.38347,249.872957 353.392006,250.115933 353.27194,250.128451 C348.627519,250.61042 343.473246,251.376334 338.845326,250.355494 C338.539757,250.288349 338.621698,249.681194 338.892556,249.621446 Z M403.371604,247.241763 C403.752854,247.225261 403.896819,247.732267 403.912183,248.022472 C403.927547,248.303004 403.778461,248.844151 403.410868,248.828787 C403.278284,248.823097 403.15708,248.816269 403.032463,248.766763 C402.545942,248.575 402.487901,247.512621 402.996614,247.310047 C403.122369,247.259972 403.239021,247.246884 403.371604,247.241763 Z M384.583946,159.777892 C386.981838,158.198834 390.851241,158.823629 393.318554,159.842761 C393.468209,159.904785 393.565513,160.021437 393.628106,160.159711 C400.566287,161.382556 406.515494,165.005569 411.536614,169.786558 C412.92903,171.037854 414.220159,172.405802 415.395205,173.880159 C415.934076,174.512351 416.460998,175.154785 416.974263,175.808601 C422.525149,182.88278 427.73917,191.168993 428.06181,200.377034 C428.539226,206.06847 427.585532,211.849244 425.202435,217.174226 C424.081446,220.29194 422.662854,223.29528 420.998442,226.100597 C416.451894,233.766567 410.046894,238.921978 402.256875,243.032649 C396.672985,245.979655 388.654785,247.642929 381.887313,246.377407 C380.136409,247.03236 377.483591,246.754674 376.232864,245.429972 C375.981353,246.028022 375.502229,245.53695 375.352575,244.849562 C374.29361,244.770466 373.176604,244.410271 372.035131,244.292481 C369.900131,244.072267 367.717901,243.96472 365.619319,243.507789 C365.306353,243.439506 365.389431,242.81528 365.667118,242.754394 C367.872108,242.272425 370.184646,242.168293 372.428899,241.934991 C373.471931,241.826875 374.431884,241.524151 375.346315,241.438228 C375.427687,241.097948 375.558563,240.779291 375.751465,240.498759 C375.876651,239.416465 376.001838,238.33417 376.127024,237.251875 C375.286567,237.304795 374.520653,237.263825 374.302715,237.247323 C370.511838,236.955979 366.380112,236.886558 362.658657,236.136576 C362.231315,236.050653 362.340569,235.178899 362.725233,235.100942 C365.722313,234.493218 368.88555,234.635476 371.924739,234.255933 C373.308619,234.082948 375.073181,233.651623 376.515103,233.901427 C376.677845,232.512994 376.844571,231.1257 377.009021,229.737836 C376.619235,229.748078 376.169132,229.697435 375.606931,229.623461 C373.429823,229.335532 371.307341,229.192136 369.10861,229.126698 C364.956968,229.002649 360.6625,229.131819 356.545,228.566203 C356.151231,228.512146 356.117659,227.72347 356.522808,227.667136 C360.62722,227.099813 364.919981,227.23069 369.059104,227.107211 C371.308479,227.040065 373.437789,226.871632 375.668955,226.592239 C376.423489,226.498349 376.951549,226.44486 377.391409,226.513713 C377.544478,225.232826 377.695271,223.951371 377.848909,222.670485 C376.727351,222.766651 375.561409,222.622118 374.415951,222.537901 C372.214375,222.375159 370.010522,222.330205 367.805532,222.252817 C363.43083,222.099179 358.912733,222.289804 354.584123,221.642248 C354.249534,221.592174 354.219944,220.929254 354.565914,220.877472 C358.882575,220.226502 363.392705,220.419403 367.756595,220.266334 C369.957603,220.189515 372.156903,220.149114 374.352789,219.981819 C375.631399,219.883946 376.940168,219.719496 378.185205,219.89305 C378.350224,218.52681 378.515243,217.160569 378.68083,215.794328 C376.916838,216.203461 374.683965,215.685075 373.023535,215.574114 C370.232444,215.388041 367.394123,215.269683 364.654244,214.680168 C364.419804,214.630093 364.481259,214.160644 364.690662,214.11569 C367.539226,213.500569 370.520942,213.394729 373.426409,213.199552 C375.119272,213.086315 377.308899,212.580448 379.005746,213.109076 C379.193526,211.570989 379.383582,210.03347 379.5725,208.495382 C377.904104,208.583582 376.251073,208.212006 374.516101,208.145998 C371.905392,208.046418 369.244039,208.089095 366.666334,207.629888 C366.307276,207.566157 366.274272,206.874216 366.646418,206.80764 C369.223554,206.34445 371.863284,206.428666 374.470578,206.292099 C376.3057,206.195364 378.095299,205.791922 379.884328,205.962631 C380.000979,205.014627 380.116493,204.066623 380.233713,203.119188 C379.921315,203.169263 379.614039,203.207957 379.320989,203.207957 C378.663759,203.207388 377.937677,203.022453 377.279879,202.960429 C375.893722,202.829552 374.435299,202.860849 373.135634,202.327668 C372.913713,202.236623 372.887537,201.759776 373.118563,201.66361 C374.406278,201.129291 375.85389,201.14181 377.232649,201.028573 C377.869963,200.975653 378.630187,200.758853 379.260672,200.781045 C379.672649,200.795271 380.086903,200.864123 380.504571,200.936959 C380.654226,199.723787 380.806157,198.510616 380.95695,197.298013 C379.187267,197.778843 376.898629,197.195019 375.16764,197.080075 C372.415243,196.897416 369.58944,196.997565 366.896791,196.346026 C366.525215,196.256119 366.483675,195.332584 366.869478,195.239263 C369.551884,194.588293 372.361754,194.682752 375.103909,194.500093 C376.992519,194.374338 379.487715,193.709142 381.315438,194.413032 C381.479319,193.104263 381.642062,191.796063 381.805942,190.487295 C380.592771,190.54875 379.237341,190.089543 377.934832,189.978013 C375.683181,189.785681 373.364384,189.872174 371.175896,189.266157 C370.953974,189.204701 370.928368,188.666968 371.159963,188.602668 C373.33195,187.997789 375.645056,188.060382 377.883619,187.887966 C379.344319,187.775299 380.864767,187.213666 382.189468,187.429328 C382.368713,185.998218 382.547957,184.567108 382.727771,183.135998 C381.507201,183.313535 380.199002,183.138843 378.909011,183.060886 C376.351222,182.906679 373.793433,182.752472 371.235075,182.598265 C366.146241,182.291558 360.943601,182.327976 355.887771,181.690662 C355.652192,181.661073 355.633414,181.185933 355.874683,181.154636 C360.91458,180.515616 366.104132,180.553741 371.177034,180.247034 C373.727994,180.092826 376.278386,179.938619 378.828209,179.784412 C380.287201,179.696213 381.78375,179.481688 383.148284,179.79181 L383.148284,179.79181 L383.592696,176.263825 C381.691567,176.636539 379.529823,176.090271 377.612192,175.962239 C374.735177,175.770476 371.697127,175.918993 368.877015,175.308993 C368.525354,175.232743 368.619244,174.529422 368.931642,174.461707 C371.850765,173.827239 375.05611,173.994534 378.038965,173.788545 C379.978218,173.654254 382.073955,173.119366 383.927854,173.604179 L383.927854,173.604179 L384.504282,169.032024 C379.777351,168.370243 374.994086,168.291716 370.256343,167.707323 C369.97069,167.672043 369.94736,167.092771 370.24041,167.056922 C373.424132,166.661446 376.630047,166.525448 379.824011,166.243209 C381.426399,166.10209 383.017407,165.885858 384.612966,165.721978 C384.726772,165.710028 384.82806,165.700924 384.924795,165.692388 C385.028358,164.876399 385.131353,164.06041 385.233778,163.244422 C383.772509,163.289375 382.154188,162.79375 380.725354,162.657183 C378.086194,162.404534 375.410047,162.365271 372.820392,161.763806 C372.646838,161.723405 372.62806,161.289235 372.807304,161.247127 C375.38444,160.647369 378.042379,160.604123 380.669021,160.351474 C381.908368,160.232547 383.28542,159.850159 384.583946,159.777892 Z M305.754534,243.963582 C308.224123,243.81222 310.805812,243.443489 313.262313,243.858881 C313.487649,243.897006 313.508134,244.335159 313.274832,244.374991 C310.81833,244.793797 308.232659,244.421651 305.761931,244.26972 C305.626502,244.261754 305.617966,243.972118 305.754534,243.963582 Z M262.644832,242.66847 C265.5907,242.204711 268.925784,242.187071 271.855149,242.776017 C272.157873,242.836903 272.081054,243.454869 271.808489,243.510065 C268.905868,244.097304 265.590131,244.062593 262.667593,243.605662 C262.257323,243.541931 262.221474,242.735616 262.644832,242.66847 Z M351.300252,242.764067 C354.202873,242.177397 357.51861,242.212108 360.441147,242.66847 C360.850849,242.732771 360.887267,243.539086 360.463909,243.605662 C357.517472,244.069991 354.182957,244.087062 351.253022,243.498116 C350.950299,243.437799 351.027118,242.819263 351.300252,242.764067 Z M389.932257,163.416838 C388.896623,163.416838 388.016903,164.190718 387.897407,165.234888 L387.897407,165.234888 L379.206614,241.368237 C379.136623,241.975392 379.339767,242.577425 379.761987,243.018993 C380.184207,243.46056 380.778274,243.685896 381.386567,243.646063 L381.386567,243.646063 L390.840429,242.987696 C400.634571,242.30486 409.712873,237.007761 415.125485,228.817715 L415.125485,228.817715 L420.464123,220.739767 C427.493349,210.103461 427.493349,196.359114 420.464123,185.722808 L420.464123,185.722808 L415.125485,177.644291 C409.712873,169.454813 400.634571,164.157715 390.840429,163.474879 L390.840429,163.474879 L390.07736,163.421959 C390.028993,163.418545 389.980625,163.416838 389.932257,163.416838 Z M345.663442,235.494711 C347.880382,234.673601 350.952575,235.417323 353.259991,235.599981 C353.572957,235.62445 353.59458,236.282248 353.277631,236.307285 C350.97306,236.490513 347.908265,237.232528 345.686203,236.416539 C345.378358,236.303302 345.341371,235.613638 345.663442,235.494711 Z M269.83111,235.599981 C272.135112,235.416754 275.199907,234.674739 277.421968,235.490159 C277.730382,235.603396 277.767369,236.29306 277.444729,236.412556 C275.228358,237.233666 272.156166,236.489944 269.84875,236.307285 C269.535784,236.282817 269.51416,235.625019 269.83111,235.599981 Z M287.659384,235.209627 C288.598853,235.181744 289.570756,235.074198 290.502257,235.209627 C290.652481,235.231819 290.665569,235.53056 290.510224,235.552752 C289.579291,235.689319 288.606819,235.581203 287.667351,235.552752 C287.514851,235.5482 287.506884,235.214179 287.659384,235.209627 Z M421.331894,228.648144 C422.024403,228.648144 422.052854,230.197612 421.36945,230.197612 C420.676371,230.197612 420.64792,228.648144 421.331894,228.648144 Z M323.484366,228.430205 C326.353983,227.523741 330.02764,228.067164 333.023013,228.105858 C336.511735,228.150243 339.98111,228.336884 343.46528,228.454104 C343.745812,228.463778 343.760606,229.076054 343.480644,229.085159 C340.002164,229.202379 336.539049,229.38959 333.055448,229.433974 C330.047556,229.472668 326.38528,230.017799 323.500868,229.112472 C323.273256,229.040774 323.245942,228.505317 323.484366,228.430205 Z M290.053293,228.105858 C293.061185,228.067164 296.723461,227.522034 299.607873,228.42736 C299.836054,228.499058 299.862799,229.034515 299.624375,229.109627 C296.754757,230.016091 293.081101,229.472668 290.085728,229.433974 C286.596437,229.38959 283.127631,229.202379 279.643461,229.085159 C279.362929,229.076054 279.347565,228.463778 279.628097,228.454104 C283.106576,228.336884 286.569692,228.150243 290.053293,228.105858 Z M272.431007,221.061269 C273.192369,221.061269 273.224235,222.763806 272.473116,222.763806 C271.711754,222.763806 271.679888,221.061269 272.431007,221.061269 Z M350.635056,221.061269 C351.396418,221.061269 351.428853,222.763806 350.677733,222.763806 C349.916371,222.763806 349.884506,221.061269 350.635056,221.061269 Z M334.129207,214.844618 C335.527882,214.756418 337.085886,214.476455 338.383843,215.069953 C338.656409,215.194571 338.688274,215.755634 338.403759,215.887649 C337.100681,216.49139 335.567715,216.204599 334.160504,216.116399 C332.525681,216.014543 330.901101,215.773274 329.275951,215.571269 C329.196287,215.561595 329.190028,215.399991 329.271968,215.389748 C330.888013,215.187743 332.50292,214.947043 334.129207,214.844618 Z M431.126604,214.569207 C431.508993,214.503769 431.666614,215.1132 431.680271,215.368694 C431.690513,215.555336 431.6393,215.788638 431.538013,215.947397 C431.473713,216.048116 431.309832,216.219394 431.166437,216.194925 C431.037267,216.172733 430.906959,216.163629 430.78917,216.10445 C430.310616,215.864319 430.254851,214.920299 430.753321,214.665942 C430.87111,214.606194 430.997435,214.591399 431.126604,214.569207 Z M286.800149,214.020662 C288.689328,213.5 290.734422,213.660466 292.683918,213.654776 C294.702836,213.649086 296.593153,213.712248 298.576222,214.075289 C298.885205,214.132192 298.811231,214.778041 298.527854,214.830392 C296.437239,215.216194 294.394991,215.250336 292.275354,215.237248 C290.466978,215.226437 288.572677,215.357313 286.820634,214.877052 C286.534412,214.797957 286.50084,214.102603 286.800149,214.020662 Z M350.779021,213.703144 C352.854272,213.625756 354.897659,213.464151 356.934216,213.930187 C357.334813,214.0218 357.224991,214.809338 356.872192,214.89014 C354.582416,215.415354 352.210131,215.153601 349.879384,215.067108 C347.843396,214.991427 345.761315,215.059142 343.753209,214.698946 C343.507388,214.654562 343.565429,214.137313 343.791903,214.096343 C346.06347,213.685504 348.472743,213.789067 350.779021,213.703144 Z M266.235979,213.914823 C268.526325,213.389039 270.89861,213.651362 273.228787,213.737854 C275.265345,213.813535 277.347425,213.745821 279.355532,214.106017 C279.601353,214.150401 279.543312,214.667649 279.316838,214.708619 C277.045271,215.119459 274.635998,215.015896 272.329151,215.101819 C270.254468,215.179207 268.211082,215.340812 266.174524,214.874776 C265.773927,214.783162 265.88375,213.995625 266.235979,213.914823 Z M260.345951,206.205037 C261.252416,206.205037 261.289972,208.232491 260.395457,208.232491 C259.488424,208.232491 259.450868,206.205037 260.345951,206.205037 Z M362.713284,206.205037 C363.619748,206.205037 363.657873,208.232491 362.762789,208.232491 C361.856325,208.232491 361.818769,206.205037 362.713284,206.205037 Z M348.04028,201.514524 C351.423731,201.156604 355.179897,200.65472 358.510429,201.556632 C358.584403,201.576549 358.593507,201.756931 358.516119,201.777985 C355.187295,202.682743 351.433405,202.177444 348.048246,201.820662 C347.912817,201.806437 347.903144,201.529319 348.04028,201.514524 Z M264.592621,201.557201 C267.921446,200.652444 271.675336,201.158312 275.060494,201.514524 C275.195354,201.52875 275.205597,201.805868 275.068461,201.820662 C271.68444,202.179151 267.928843,202.680466 264.598312,201.779123 C264.523769,201.758638 264.515233,201.578825 264.592621,201.557201 Z M296.965868,201.195299 C305.400028,200.732677 313.861502,200.372481 322.293386,201.154897 L322.293386,201.154897 L322.329713,201.169579 C322.391039,201.218234 322.383862,201.369015 322.298507,201.376819 C313.867192,202.162649 305.403442,201.797901 296.969282,201.336418 C296.906688,201.333004 296.902705,201.198713 296.965868,201.195299 Z M362.389506,195.21764 C363.193545,195.21764 363.227118,197.015774 362.43389,197.015774 C361.629851,197.015774 361.595709,195.21764 362.389506,195.21764 Z M260.674851,195.21764 C261.47889,195.21764 261.512463,197.015774 260.719235,197.015774 C259.915196,197.015774 259.881623,195.21764 260.674851,195.21764 Z M265.581595,188.723871 C269.540905,188.472929 273.735224,188.239058 277.666651,188.858162 C278.018312,188.913358 278.049039,189.603591 277.686567,189.661063 C273.757985,190.284151 269.563097,190.045159 265.60834,189.794785 C265.133769,189.765196 265.10361,188.75403 265.581595,188.723871 Z M345.421604,188.858162 C349.350756,188.234506 353.545644,188.474067 357.500401,188.723871 L357.500401,188.723871 L357.58416,188.740537 C357.976757,188.876525 357.975257,189.766512 357.527146,189.794785 C353.567836,190.046297 349.373517,190.280168 345.44209,189.661063 C345.090429,189.605868 345.059701,188.915634 345.421604,188.858162 Z M289.729515,189.057892 C296.421306,188.434235 303.173983,188.872388 309.888535,189.048218 C309.951129,189.049356 309.954543,189.187631 309.89195,189.189338 C303.176828,189.365168 296.42472,189.799907 289.73236,189.179095 C289.678871,189.174543 289.675457,189.063013 289.729515,189.057892 Z M333.621063,187.614832 C336.317696,187.610849 339.396716,187.176679 342.009701,187.883983 C342.31584,187.967062 342.351688,188.711922 342.031894,188.798983 C339.429151,189.506287 336.346147,189.075532 333.656912,189.071549 C330.550578,189.066427 327.467575,189.014076 324.37319,188.736959 C324.025513,188.705662 324.001045,187.981287 324.353843,187.949422 C327.441968,187.672304 330.52042,187.619953 333.621063,187.614832 Z M270.79903,180.581054 C271.551856,180.581054 271.583153,182.264244 270.840569,182.264244 C270.087174,182.264244 270.055877,180.581054 270.79903,180.581054 Z M352.268741,180.581054 C353.020998,180.581054 353.052864,182.264244 352.309711,182.264244 C351.557453,182.264244 351.525588,180.581054 352.268741,180.581054 Z M338.466922,175.200308 C339.119599,175.183806 339.850233,175.043825 340.436334,175.366465 C340.642892,175.480271 340.666222,175.868349 340.451129,175.988983 C339.827472,176.339506 339.027416,176.171642 338.330924,176.154571 C337.968451,176.146035 337.571838,176.180177 337.216194,176.095392 C336.871362,176.012313 336.591968,175.831362 336.238601,175.767062 C336.165196,175.753974 336.182836,175.600905 336.249981,175.588386 C336.706912,175.50417 337.051175,175.264608 337.513228,175.223069 C337.825625,175.195187 338.153955,175.207705 338.466922,175.200308 Z M284.279347,175.30444 C287.156931,174.324571 290.729869,174.830438 293.741744,174.820765 C297.236157,174.809953 300.714636,174.750205 304.195961,175.08764 C304.48958,175.116091 304.511203,175.724384 304.212463,175.753974 C300.73569,176.092547 297.261763,176.03166 293.770765,176.02028 C290.757752,176.010606 287.168312,176.511922 284.285037,175.537743 C284.20708,175.511567 284.197976,175.332323 284.279347,175.30444 Z M352.247118,175.016511 C354.923265,174.352453 357.721754,174.452603 360.440009,174.721185 C360.878162,174.764431 360.911166,175.671465 360.464478,175.715849 C357.742808,175.986138 354.936922,176.085718 352.25736,175.422229 C352.121362,175.388657 352.105998,175.051791 352.247118,175.016511 Z M262.644263,174.721185 C265.365933,174.450896 268.171819,174.351884 270.851381,175.014804 C270.987379,175.048377 271.002743,175.385812 270.861054,175.420522 C268.185476,176.085149 265.386987,175.984431 262.668731,175.715849 C262.230009,175.672603 262.197575,174.765569 262.644263,174.721185 Z M267.224953,167.257789 C270.03653,166.759888 273.26236,166.469683 276.084179,167.12236 C276.257733,167.162761 276.27708,167.5975 276.097267,167.639039 C273.267481,168.295131 270.057584,168.002649 267.230644,167.506455 C267.121959,167.487108 267.112285,167.277705 267.224953,167.257789 Z M347.011474,167.124636 C349.841259,166.468545 353.051157,166.761026 355.877528,167.257789 C355.986782,167.276567 355.996455,167.48597 355.883787,167.506455 C353.072211,168.004356 349.846381,168.293993 347.024562,167.641315 C346.851007,167.601483 346.83166,167.166175 347.011474,167.124636 Z M297.987845,166.353601 C300.408498,166.363274 302.886623,166.214757 305.275979,166.64722 C305.479123,166.684207 305.430756,167.109841 305.244114,167.143983 C302.730709,167.60319 300.080737,167.434188 297.532052,167.43305 C295.252519,167.431912 292.97583,167.527509 290.746371,167.009123 C290.668414,166.990914 290.659879,166.794599 290.740681,166.775252 C293.111259,166.223293 295.564347,166.343927 297.987845,166.353601 Z M309.619953,165.910896 C310.035345,165.910896 310.052985,166.838983 309.642715,166.838983 C309.227892,166.838983 309.210821,165.910896 309.619953,165.910896 Z M255.452295,160.99903 C256.196017,160.99903 256.227313,162.662873 255.492696,162.662873 C254.748974,162.662873 254.717677,160.99903 255.452295,160.99903 Z M367.615476,160.99903 C368.359767,160.99903 368.391063,162.662873 367.657015,162.662873 C366.912155,162.662873 366.881427,160.99903 367.615476,160.99903 Z M263.064207,155.847034 C264.152761,155.839636 265.30334,155.685998 266.327593,156.096838 C266.666166,156.232836 266.706567,156.968022 266.352062,157.111418 C265.326101,157.527379 264.193162,157.373172 263.101763,157.365774 C261.863554,157.357239 260.635588,157.353256 259.405345,157.189944 C258.893218,157.12166 258.850541,156.093424 259.376894,156.022864 C260.602584,155.858414 261.829981,155.855569 263.064207,155.847034 Z M279.760681,155.474888 C280.674543,155.464646 281.436474,155.56764 282.304244,155.855569 C282.597295,155.952304 282.632006,156.628881 282.325868,156.731306 C281.463218,157.019235 280.709823,157.125644 279.801082,157.11597 C278.928759,157.106297 278.033675,157.181978 277.25695,156.735289 C276.966175,156.567994 276.933741,156.035951 277.235326,155.859552 C277.811896,155.521549 278.456642,155.479618 279.108591,155.475697 Z M322.033909,150.726334 C326.242453,150.489049 330.819729,149.811903 334.981614,150.730886 C335.097127,150.756493 335.06583,150.986381 334.962836,151.009142 C330.816315,151.928694 326.239608,151.245858 322.041306,151.009142 C321.91555,151.002313 321.907584,150.733731 322.033909,150.726334 Z M288.951651,150.18917 C291.824114,149.95416 295.232603,149.217836 298.044179,150.077071 C298.226269,150.132836 298.247892,150.563591 298.057267,150.622201 C295.249104,151.485989 291.835494,150.747388 288.959618,150.512379 C288.816791,150.500998 288.807118,150.201119 288.951651,150.18917 Z M269.181278,149.855718 C273.178713,149.2093 278.248769,149.147276 282.242789,149.846045 C282.443088,149.881325 282.461297,150.268834 282.253601,150.305252 C278.266978,151.008573 273.193507,150.937444 269.192659,150.295578 C268.999757,150.264851 268.982687,149.888153 269.181278,149.855718 Z M340.85514,149.846045 C344.841763,149.142724 349.915233,149.213853 353.916082,149.855718 C354.108983,149.886446 354.126054,150.263713 353.927463,150.295578 C349.929459,150.941996 344.859972,151.004021 340.866521,150.305252 C340.665653,150.270541 340.647444,149.883032 340.85514,149.846045 Z M263.304338,143.670933 C265.66695,143.524123 268.191166,143.169049 270.527603,143.64931 C270.714244,143.688004 270.666446,144.066409 270.498582,144.101119 C268.180354,144.580812 265.660121,144.217771 263.314011,144.072099 C263.135905,144.061287 263.125093,143.681744 263.304338,143.670933 Z M352.610159,143.642481 C354.928386,143.162789 357.44805,143.525261 359.79416,143.670933 C359.972836,143.681744 359.983647,144.061287 359.804403,144.072099 C357.441791,144.219478 354.917575,144.574552 352.580569,144.094291 C352.393927,144.055597 352.442295,143.676623 352.610159,143.642481 Z M295.276987,133.592845 C296.960177,132.809291 298.898293,133.11486 300.720326,133.158675 C302.853619,133.210457 304.938545,133.294674 307.059319,133.548461 C307.236287,133.569515 307.249944,133.928004 307.069562,133.950196 C304.957892,134.204552 302.872966,134.2882 300.749347,134.339412 C298.92959,134.383228 296.969851,134.68083 295.284953,133.90695 C295.180252,133.858582 295.167733,133.644058 295.276987,133.592845 Z M356.517118,132.734179 C357.132808,132.734179 357.158414,134.111231 356.551259,134.111231 C355.935,134.111231 355.909394,132.734179 356.517118,132.734179 Z M266.557481,132.734179 C267.173741,132.734179 267.199347,134.111231 266.591623,134.111231 C265.975933,134.111231 265.949757,132.734179 266.557481,132.734179 Z M322.404347,133.126241 C326.940084,132.435438 331.569142,132.921959 336.122519,133.27931 C336.248843,133.288983 336.257948,133.555858 336.129347,133.566101 C331.576539,133.92459 326.95431,134.404282 322.419142,133.71917 C322.159664,133.679907 322.136334,133.166642 322.404347,133.126241 Z M339.055299,132.387071 C340.041427,132.428041 341.01959,132.456493 341.99889,132.587938 C342.158218,132.608993 342.171306,132.928787 342.007425,132.951549 C341.032108,133.082994 340.057929,133.111446 339.074076,133.152416 C338.730382,133.166073 338.72014,132.373414 339.055299,132.387071 Z"/>
  </g>
</svg>
